<?xml version="1.0" encoding="UTF-8"?>
<svg version="1.1" xmlns="http://www.w3.org/2000/svg" width="944" height="534">
<path d="M0 0 C166.98 0 333.96 0 506 0 C506.66 1.98 507.32 3.96 508 6 C508.66 6 509.32 6 510 6 C510.66 7.98 511.32 9.96 512 12 C512.66 12 513.32 12 514 12 C514.66 13.98 515.32 15.96 516 18 C516.66 18 517.32 18 518 18 C518.67154933 19.28913487 519.33708859 20.58140204 520 21.875 C520.37125 22.59429688 520.7425 23.31359375 521.125 24.0546875 C522 26 522 26 522 28 C522.66 28 523.32 28 524 28 C524 29.32 524 30.64 524 32 C524.66 32 525.32 32 526 32 C526.67154933 33.28913487 527.33708859 34.58140204 528 35.875 C528.37125 36.59429687 528.7425 37.31359375 529.125 38.0546875 C530 40 530 40 530 42 C530.66 42 531.32 42 532 42 C532 43.32 532 44.64 532 46 C532.66 46 533.32 46 534 46 C536.28891271 50.478903 538.5672357 54.96297405 540.8359375 59.45214844 C541.60909354 60.97835327 542.38511641 62.50310935 543.1640625 64.02636719 C544.28362919 66.21694793 545.39276091 68.41254282 546.5 70.609375 C546.84998047 71.2886908 547.19996094 71.96800659 547.56054688 72.66790771 C549.28521447 76.11561626 550 78.06227056 550 82 C550.66 82 551.32 82 552 82 C552 83.32 552 84.64 552 86 C552.66 86 553.32 86 554 86 C555.31626692 89.61973402 556 92.09567131 556 96 C556.66 96 557.32 96 558 96 C558 97.32 558 98.64 558 100 C558.66 100 559.32 100 560 100 C560.67413211 101.91405367 561.3390332 103.83136026 562 105.75 C562.37125 106.81734375 562.7425 107.8846875 563.125 108.984375 C564 112 564 112 564 116 C564.66 116 565.32 116 566 116 C566 117.98 566 119.96 566 122 C566.66 122 567.32 122 568 122 C568.67812114 123.8708878 569.3419946 125.74694293 570 127.625 C570.37125 128.66914063 570.7425 129.71328125 571.125 130.7890625 C572.00483564 134.01774506 572.15988262 136.67244294 572 140 C572.66 140 573.32 140 574 140 C574 141.98 574 143.96 574 146 C574.66 146 575.32 146 576 146 C577.33583899 150.84241633 578.25328119 154.93437617 578 160 C578.66 160 579.32 160 580 160 C580 162.64 580 165.28 580 168 C580.66 168 581.32 168 582 168 C582 170.64 582 173.28 582 176 C582.66 176 583.32 176 584 176 C584.27263672 177.74023438 584.27263672 177.74023438 584.55078125 179.515625 C585.83486323 187.55299508 587.242145 195.45485405 589.3046875 203.3359375 C591.30888516 211.014942 592.30445583 218.05031991 592 226 C592.66 226 593.32 226 594 226 C594 230.62 594 235.24 594 240 C594.66 240 595.32 240 596 240 C596 244.62 596 249.24 596 254 C596.66 254 597.32 254 598 254 C598 258.62 598 263.24 598 268 C598.66 268 599.32 268 600 268 C600 275.92 600 283.84 600 292 C600.66 292 601.32 292 602 292 C602.03758423 293.07483643 602.03758423 293.07483643 602.07592773 294.17138672 C602.19169751 297.40611514 602.31450969 300.64053841 602.4375 303.875 C602.47681641 305.00292969 602.51613281 306.13085938 602.55664062 307.29296875 C602.59853516 308.36933594 602.64042969 309.44570313 602.68359375 310.5546875 C602.73858032 312.04718018 602.73858032 312.04718018 602.79467773 313.56982422 C602.84959532 316.00779501 602.84959532 316.00779501 604 318 C604.09016377 319.60354452 604.11756075 321.21082222 604.11352539 322.81689453 C604.11344986 323.81778107 604.11337433 324.8186676 604.11329651 325.84988403 C604.10813522 326.93325043 604.10297394 328.01661682 604.09765625 329.1328125 C604.0962413 330.23978485 604.09482635 331.3467572 604.09336853 332.48727417 C604.08775772 336.03320993 604.07520337 339.57908323 604.0625 343.125 C604.05748639 345.52473867 604.05292325 347.92447833 604.04882812 350.32421875 C604.03778478 356.21616725 604.0210361 362.10807916 604 368 C605.98 368 607.96 368 610 368 C610 368.66 610 369.32 610 370 C611.98 370 613.96 370 616 370 C616 370.66 616 371.32 616 372 C617.98 372 619.96 372 622 372 C622 372.66 622 373.32 622 374 C623.98 374 625.96 374 628 374 C628 374.66 628 375.32 628 376 C629.32 376 630.64 376 632 376 C632 376.66 632 377.32 632 378 C632.66 378 633.32 378 634 378 C635.76462683 381.08809695 636 382.23312136 636 386 C636.66 386 637.32 386 638 386 C638 388.64 638 391.28 638 394 C638.66 394 639.32 394 640 394 C640 397.3 640 400.6 640 404 C639.34 404 638.68 404 638 404 C638 407.96 638 411.92 638 416 C637.34 416 636.68 416 636 416 C635.855625 416.94875 635.71125 417.8975 635.5625 418.875 C635 422 635 422 634 424 C633.34 424 632.68 424 632 424 C632 424.66 632 425.32 632 426 C631.34 426 630.68 426 630 426 C630 426.66 630 427.32 630 428 C627.36 428 624.72 428 622 428 C622 428.66 622 429.32 622 430 C619.36 430 616.72 430 614 430 C614 430.66 614 431.32 614 432 C611.03 432 608.06 432 605 432 C605 432.66 605 433.32 605 434 C604.01 434 603.02 434 602 434 C601.34 435.98 600.68 437.96 600 440 C599.34 440 598.68 440 598 440 C598 440.66 598 441.32 598 442 C597.34 442 596.68 442 596 442 C595.34 443.98 594.68 445.96 594 448 C593.34 448 592.68 448 592 448 C591.67 449.32 591.34 450.64 591 452 C590.34 452 589.68 452 589 452 C588.67 453.32 588.34 454.64 588 456 C587.34 456 586.68 456 586 456 C585.34 457.98 584.68 459.96 584 462 C583.34 462 582.68 462 582 462 C582 462.66 582 463.32 582 464 C581.34 464 580.68 464 580 464 C579.34 465.98 578.68 467.96 578 470 C566.78 470 555.56 470 544 470 C544 471.98 544 473.96 544 476 C543.34 476 542.68 476 542 476 C542 477.98 542 479.96 542 482 C541.34 482 540.68 482 540 482 C539.90847656 482.83789062 539.81695313 483.67578125 539.72265625 484.5390625 C538.89195787 488.5174342 537.31535657 491.8126503 535.4375 495.375 C535.10814453 496.01566406 534.77878906 496.65632813 534.43945312 497.31640625 C533.63360518 498.88138632 532.81781507 500.44124021 532 502 C531.34 502 530.68 502 530 502 C529.34 503.98 528.68 505.96 528 508 C527.34 508 526.68 508 526 508 C526 508.66 526 509.32 526 510 C525.34 510 524.68 510 524 510 C523.67 511.32 523.34 512.64 523 514 C522.01 514 521.02 514 520 514 C520 514.66 520 515.32 520 516 C519.34 516 518.68 516 518 516 C518 516.66 518 517.32 518 518 C517.34 518 516.68 518 516 518 C516 518.66 516 519.32 516 520 C515.34 520 514.68 520 514 520 C514 520.66 514 521.32 514 522 C513.01 522 512.02 522 511 522 C511 522.66 511 523.32 511 524 C509.68 524 508.36 524 507 524 C507 524.66 507 525.32 507 526 C506.01 526 505.02 526 504 526 C504 526.66 504 527.32 504 528 C502.68 528 501.36 528 500 528 C500 528.66 500 529.32 500 530 C498.02 530 496.04 530 494 530 C494 530.66 494 531.32 494 532 C490.7 532 487.4 532 484 532 C484 532.66 484 533.32 484 534 C476.08 534 468.16 534 460 534 C460 533.34 460 532.68 460 532 C456.04 532 452.08 532 448 532 C448 531.34 448 530.68 448 530 C445.36 530 442.72 530 440 530 C440 529.34 440 528.68 440 528 C438.02 528 436.04 528 434 528 C434 527.34 434 526.68 434 526 C432.35 526 430.7 526 429 526 C429 525.34 429 524.68 429 524 C427.68 524 426.36 524 425 524 C425 523.34 425 522.68 425 522 C423.68 522 422.36 522 421 522 C421 521.34 421 520.68 421 520 C420.01 520 419.02 520 418 520 C418 519.34 418 518.68 418 518 C417.01 518 416.02 518 415 518 C415 517.34 415 516.68 415 516 C414.01 516 413.02 516 412 516 C412 515.34 412 514.68 412 514 C411.34 514 410.68 514 410 514 C410 513.34 410 512.68 410 512 C409.34 512 408.68 512 408 512 C408 511.34 408 510.68 408 510 C407.34 510 406.68 510 406 510 C406 509.34 406 508.68 406 508 C405.34 508 404.68 508 404 508 C404 507.34 404 506.68 404 506 C403.34 506 402.68 506 402 506 C402 505.34 402 504.68 402 504 C401.34 504 400.68 504 400 504 C399.34 502.02 398.68 500.04 398 498 C397.34 498 396.68 498 396 498 C394.23537317 494.91190305 394 493.76687864 394 490 C393.34 490 392.68 490 392 490 C392 488.68 392 487.36 392 486 C391.34 486 390.68 486 390 486 C388.40861915 481.82262526 387.78721942 478.46839215 388 474 C387.34 474 386.68 474 386 474 C386 472.68 386 471.36 386 470 C236.84 470 87.68 470 -66 470 C-66 470.66 -66 471.32 -66 472 C-66.66 472 -67.32 472 -68 472 C-67.95875 472.825 -67.9175 473.65 -67.875 474.5 C-68.02213993 478.61991815 -68.90523395 482.03147307 -70 486 C-70.66 486 -71.32 486 -72 486 C-72 487.32 -72 488.64 -72 490 C-72.66 490 -73.32 490 -74 490 C-74.103125 490.86625 -74.20625 491.7325 -74.3125 492.625 C-75.03398414 496.16683123 -76.27123261 498.84312042 -78 502 C-78.66 502 -79.32 502 -80 502 C-80.66 503.98 -81.32 505.96 -82 508 C-82.66 508 -83.32 508 -84 508 C-84 508.66 -84 509.32 -84 510 C-84.66 510 -85.32 510 -86 510 C-86 510.66 -86 511.32 -86 512 C-86.66 512 -87.32 512 -88 512 C-88 512.66 -88 513.32 -88 514 C-88.66 514 -89.32 514 -90 514 C-90 514.66 -90 515.32 -90 516 C-90.66 516 -91.32 516 -92 516 C-92 516.66 -92 517.32 -92 518 C-92.66 518 -93.32 518 -94 518 C-94 518.66 -94 519.32 -94 520 C-94.99 520 -95.98 520 -97 520 C-97 520.66 -97 521.32 -97 522 C-97.99 522 -98.98 522 -100 522 C-100 522.66 -100 523.32 -100 524 C-100.99 524 -101.98 524 -103 524 C-103 524.66 -103 525.32 -103 526 C-104.32 526 -105.64 526 -107 526 C-107 526.66 -107 527.32 -107 528 C-108.65 528 -110.3 528 -112 528 C-112 528.66 -112 529.32 -112 530 C-113.32 530 -114.64 530 -116 530 C-116 530.66 -116 531.32 -116 532 C-119.3 532 -122.6 532 -126 532 C-126 532.66 -126 533.32 -126 534 C-138.54 534 -151.08 534 -164 534 C-164 533.34 -164 532.68 -164 532 C-166.64 532 -169.28 532 -172 532 C-172 531.34 -172 530.68 -172 530 C-173.98 530 -175.96 530 -178 530 C-178 529.34 -178 528.68 -178 528 C-179.98 528 -181.96 528 -184 528 C-184 527.34 -184 526.68 -184 526 C-184.99 526 -185.98 526 -187 526 C-187 525.34 -187 524.68 -187 524 C-187.99 524 -188.98 524 -190 524 C-190 523.34 -190 522.68 -190 522 C-190.99 522 -191.98 522 -193 522 C-193 521.34 -193 520.68 -193 520 C-193.99 520 -194.98 520 -196 520 C-196 519.34 -196 518.68 -196 518 C-196.66 518 -197.32 518 -198 518 C-198 517.34 -198 516.68 -198 516 C-198.66 516 -199.32 516 -200 516 C-200 515.34 -200 514.68 -200 514 C-200.66 514 -201.32 514 -202 514 C-202 513.34 -202 512.68 -202 512 C-202.66 512 -203.32 512 -204 512 C-204 511.34 -204 510.68 -204 510 C-204.66 510 -205.32 510 -206 510 C-206 509.34 -206 508.68 -206 508 C-206.66 508 -207.32 508 -208 508 C-208.33 506.68 -208.66 505.36 -209 504 C-209.66 504 -210.32 504 -211 504 C-211.33 502.68 -211.66 501.36 -212 500 C-212.66 500 -213.32 500 -214 500 C-215.76462683 496.91190305 -216 495.76687864 -216 492 C-216.66 492 -217.32 492 -218 492 C-218 490.68 -218 489.36 -218 488 C-218.66 488 -219.32 488 -220 488 C-220 486.68 -220 485.36 -220 484 C-220.66 484 -221.32 484 -222 484 C-222 482.02 -222 480.04 -222 478 C-222.66 478 -223.32 478 -224 478 C-224 476.02 -224 474.04 -224 472 C-224.66 472 -225.32 472 -226 472 C-226 471.34 -226 470.68 -226 470 C-249.76 470 -273.52 470 -298 470 C-298.66 468.02 -299.32 466.04 -300 464 C-300.66 464 -301.32 464 -302 464 C-303.86131271 460.83650409 -304.24746869 458.52763845 -304.1875 454.875 C-304.17783203 453.57175781 -304.17783203 453.57175781 -304.16796875 452.2421875 C-304 450 -304 450 -303 448 C-302.34 448 -301.68 448 -301 448 C-301 447.34 -301 446.68 -301 446 C-300.34 446 -299.68 446 -299 446 C-298.505 444.02 -298.505 444.02 -298 442 C-292.06 442 -286.12 442 -280 442 C-280 415.6 -280 389.2 -280 362 C-278.35 362 -276.7 362 -275 362 C-275 361.34 -275 360.68 -275 360 C-273.35 360 -271.7 360 -270 360 C-270 359.34 -270 358.68 -270 358 C-268.68 358 -267.36 358 -266 358 C-266 357.34 -266 356.68 -266 356 C-264.02 356 -262.04 356 -260 356 C-260 355.34 -260 354.68 -260 354 C-258.68 354 -257.36 354 -256 354 C-256 353.34 -256 352.68 -256 352 C-253.69 352 -251.38 352 -249 352 C-249 351.34 -249 350.68 -249 350 C-247.35 350 -245.7 350 -244 350 C-244 349.34 -244 348.68 -244 348 C-242.68 348 -241.36 348 -240 348 C-240 347.34 -240 346.68 -240 346 C-238.02 346 -236.04 346 -234 346 C-234 345.34 -234 344.68 -234 344 C-232.35 344 -230.7 344 -229 344 C-229 343.34 -229 342.68 -229 342 C-227.35 342 -225.7 342 -224 342 C-224 341.34 -224 340.68 -224 340 C-222.02 340 -220.04 340 -218 340 C-218 339.34 -218 338.68 -218 338 C-216.35 338 -214.7 338 -213 338 C-213 337.34 -213 336.68 -213 336 C-211.35 336 -209.7 336 -208 336 C-208 335.34 -208 334.68 -208 334 C-206.68 334 -205.36 334 -204 334 C-204 333.34 -204 332.68 -204 332 C-202.02 332 -200.04 332 -198 332 C-198 331.34 -198 330.68 -198 330 C-196.68 330 -195.36 330 -194 330 C-194 329.34 -194 328.68 -194 328 C-191.69 328 -189.38 328 -187 328 C-187 327.34 -187 326.68 -187 326 C-185.35 326 -183.7 326 -182 326 C-182 325.34 -182 324.68 -182 324 C-180.68 324 -179.36 324 -178 324 C-178 323.34 -178 322.68 -178 322 C-176.02 322 -174.04 322 -172 322 C-172 321.34 -172 320.68 -172 320 C-170.68 320 -169.36 320 -168 320 C-168 319.34 -168 318.68 -168 318 C-166.02 318 -164.04 318 -162 318 C-162 316.68 -162 315.36 -162 314 C-161.34 314 -160.68 314 -160 314 C-159.71125 313.0925 -159.4225 312.185 -159.125 311.25 C-158.23468224 308.67797092 -157.28505587 306.38653234 -156 304 C-155.34 304 -154.68 304 -154 304 C-153.71125 303.0925 -153.4225 302.185 -153.125 301.25 C-152.23468224 298.67797092 -151.28505587 296.38653234 -150 294 C-149.34 294 -148.68 294 -148 294 C-148 292.68 -148 291.36 -148 290 C-147.34 290 -146.68 290 -146 290 C-145.71125 289.0925 -145.4225 288.185 -145.125 287.25 C-144.23468224 284.67797092 -143.28505587 282.38653234 -142 280 C-141.34 280 -140.68 280 -140 280 C-139.71125 279.0925 -139.4225 278.185 -139.125 277.25 C-138.23468224 274.67797092 -137.28505587 272.38653234 -136 270 C-135.34 270 -134.68 270 -134 270 C-134 268.68 -134 267.36 -134 266 C-133.34 266 -132.68 266 -132 266 C-131.34 264.02 -130.68 262.04 -130 260 C-129.34 260 -128.68 260 -128 260 C-128 258.68 -128 257.36 -128 256 C-127.34 256 -126.68 256 -126 256 C-125.71125 255.0925 -125.4225 254.185 -125.125 253.25 C-124.23468224 250.67797092 -123.28505587 248.38653234 -122 246 C-121.34 246 -120.68 246 -120 246 C-120 244.68 -120 243.36 -120 242 C-119.34 242 -118.68 242 -118 242 C-117.01 239.03 -117.01 239.03 -116 236 C-115.34 236 -114.68 236 -114 236 C-114 234.68 -114 233.36 -114 232 C-113.34 232 -112.68 232 -112 232 C-111.71125 231.0925 -111.4225 230.185 -111.125 229.25 C-110.23468224 226.67797092 -109.28505587 224.38653234 -108 222 C-107.34 222 -106.68 222 -106 222 C-105.71125 221.0925 -105.4225 220.185 -105.125 219.25 C-104.23468224 216.67797092 -103.28505587 214.38653234 -102 212 C-101.34 212 -100.68 212 -100 212 C-99.67 210.68 -99.34 209.36 -99 208 C-93.06 208 -87.12 208 -81 208 C-81 207.34 -81 206.68 -81 206 C-70.11 206 -59.22 206 -48 206 C-48 205.34 -48 204.68 -48 204 C-36.78 204 -25.56 204 -14 204 C-14 203.34 -14 202.68 -14 202 C-11.36 202 -8.72 202 -6 202 C-6.0309375 200.081875 -6.0309375 200.081875 -6.0625 198.125 C-6.125 194.25 -6.125 194.25 -5 192 C-4.79581065 190.00348191 -4.63477704 188.00240179 -4.5 186 C-4.11111111 180.22222222 -4.11111111 180.22222222 -3 178 C-2.77141886 175.9625237 -2.58975722 173.91959697 -2.4375 171.875 C-2.35371094 170.77929688 -2.26992188 169.68359375 -2.18359375 168.5546875 C-2.12300781 167.71164063 -2.06242187 166.86859375 -2 166 C-2.66 166 -3.32 166 -4 166 C-4 165.34 -4 164.68 -4 164 C-5.98 164 -7.96 164 -10 164 C-10 163.34 -10 162.68 -10 162 C-12.64 162 -15.28 162 -18 162 C-18 161.34 -18 160.68 -18 160 C-20.64 160 -23.28 160 -26 160 C-26 159.34 -26 158.68 -26 158 C-27.98 158 -29.96 158 -32 158 C-32 157.34 -32 156.68 -32 156 C-34.64 156 -37.28 156 -40 156 C-40 155.34 -40 154.68 -40 154 C-41.98 154 -43.96 154 -46 154 C-46 153.34 -46 152.68 -46 152 C-48.64 152 -51.28 152 -54 152 C-54 151.34 -54 150.68 -54 150 C-55.98 150 -57.96 150 -60 150 C-60 149.34 -60 148.68 -60 148 C-62.64 148 -65.28 148 -68 148 C-68 147.34 -68 146.68 -68 146 C-70.31 146 -72.62 146 -75 146 C-75 145.34 -75 144.68 -75 144 C-77.31 144 -79.62 144 -82 144 C-82 143.34 -82 142.68 -82 142 C-83.98 142 -85.96 142 -88 142 C-88.67667998 140.75539217 -89.34094719 139.50403104 -90 138.25 C-90.37125 137.55390625 -90.7425 136.8578125 -91.125 136.140625 C-92 134 -92 134 -92 130 C-92.66 130 -93.32 130 -94 130 C-94 128.02 -94 126.04 -94 124 C-94.66 124 -95.32 124 -96 124 C-96.06058594 123.30132812 -96.12117187 122.60265625 -96.18359375 121.8828125 C-96.26738281 120.97273438 -96.35117188 120.06265625 -96.4375 119.125 C-96.51871094 118.22007813 -96.59992188 117.31515625 -96.68359375 116.3828125 C-96.86989285 113.98889139 -96.86989285 113.98889139 -98 112 C-98.08658569 109.44637396 -98.11562516 106.9204558 -98.09765625 104.3671875 C-98.09553383 103.23943405 -98.09553383 103.23943405 -98.09336853 102.08889771 C-98.08776465 99.6842249 -98.07521157 97.27964473 -98.0625 94.875 C-98.0574855 93.24609509 -98.0529225 91.61718873 -98.04882812 89.98828125 C-98.03779397 85.99215173 -98.02052679 81.99609158 -98 78 C-97.34 78 -96.68 78 -96 78 C-96.04640625 77.41734375 -96.0928125 76.8346875 -96.140625 76.234375 C-96.4665275 68.83173253 -94.64369374 62.86888283 -92 56 C-91.34 56 -90.68 56 -90 56 C-90 54.68 -90 53.36 -90 52 C-89.34 52 -88.68 52 -88 52 C-87.67 50.68 -87.34 49.36 -87 48 C-85.68 48 -84.36 48 -83 48 C-83 47.34 -83 46.68 -83 46 C-82.01 46 -81.02 46 -80 46 C-80 45.34 -80 44.68 -80 44 C-78.68 44 -77.36 44 -76 44 C-76 43.34 -76 42.68 -76 42 C-74.68 42 -73.36 42 -72 42 C-72 41.34 -72 40.68 -72 40 C-71.01 40 -70.02 40 -69 40 C-69 39.34 -69 38.68 -69 38 C-67.68 38 -66.36 38 -65 38 C-65 37.34 -65 36.68 -65 36 C-63.68 36 -62.36 36 -61 36 C-61 35.34 -61 34.68 -61 34 C-60.01 34 -59.02 34 -58 34 C-58 33.34 -58 32.68 -58 32 C-56.68 32 -55.36 32 -54 32 C-54 31.34 -54 30.68 -54 30 C-52.68 30 -51.36 30 -50 30 C-50 29.34 -50 28.68 -50 28 C-49.01 28 -48.02 28 -47 28 C-47 27.34 -47 26.68 -47 26 C-45.68 26 -44.36 26 -43 26 C-43 25.34 -43 24.68 -43 24 C-41.68 24 -40.36 24 -39 24 C-39 23.34 -39 22.68 -39 22 C-38.01 22 -37.02 22 -36 22 C-36 21.34 -36 20.68 -36 20 C-34.68 20 -33.36 20 -32 20 C-32 19.34 -32 18.68 -32 18 C-31.01 18 -30.02 18 -29 18 C-29 17.34 -29 16.68 -29 16 C-27.68 16 -26.36 16 -25 16 C-25 15.34 -25 14.68 -25 14 C-23.68 14 -22.36 14 -21 14 C-21 13.34 -21 12.68 -21 12 C-20.01 12 -19.02 12 -18 12 C-18 11.34 -18 10.68 -18 10 C-16.68 10 -15.36 10 -14 10 C-14 9.34 -14 8.68 -14 8 C-12.68 8 -11.36 8 -10 8 C-10 7.34 -10 6.68 -10 6 C-9.01 6 -8.02 6 -7 6 C-7 5.34 -7 4.68 -7 4 C-5.68 4 -4.36 4 -3 4 C-3 3.34 -3 2.68 -3 2 C-2.01 2 -1.02 2 0 2 C0 1.34 0 0.68 0 0 Z " fill="#8402A9" transform="translate(304,0)"/>
<path d="M0 0 C52.14 0 104.28 0 158 0 C158 35.64 158 71.28 158 108 C105.86 108 53.72 108 0 108 C0 72.36 0 36.72 0 0 Z " fill="#FFFFFF" transform="translate(596,216)"/>
<path d="M0 0 C44.22 0 88.44 0 134 0 C134 35.64 134 71.28 134 108 C89.78 108 45.56 108 0 108 C0 72.36 0 36.72 0 0 Z " fill="#FEFFFE" transform="translate(392,216)"/>
<path d="M0 0 C36.63 0 73.26 0 111 0 C111 35.64 111 71.28 111 108 C74.37 108 37.74 108 0 108 C0 72.36 0 36.72 0 0 Z " fill="#FEFEFE" transform="translate(219,216)"/>
<path d="M0 0 C5.65559809 4.53549587 8.36963347 9.39527964 10.34375 16.3046875 C10.53324219 16.89765625 10.72273438 17.490625 10.91796875 18.1015625 C12.8927886 28.31989643 12.13468169 40.0301142 7.34375 49.3046875 C3.3213928 55.05357854 -1.29722884 59.78589746 -8.09375 61.9296875 C-8.83496094 62.16945313 -9.57617188 62.40921875 -10.33984375 62.65625 C-21.76861578 65.85553526 -34.51928481 65.37934382 -45.23046875 60.015625 C-52.92531066 55.25881364 -56.79417941 49.66213208 -59.08984375 40.96484375 C-61.59428041 29.20262743 -61.35043852 16.67944462 -54.65625 6.3046875 C-50.4259764 -0.11365865 -44.01662037 -3.15599918 -36.78125 -5.15234375 C-24.48999129 -7.28794995 -10.74015172 -6.85474389 0 0 Z " fill="#FEFEFE" transform="translate(182.65625,425.6953125)"/>
<path d="M0 0 C6.13756846 5.73729226 8.85018476 13.03916072 9.3515625 21.328125 C9.75007925 34.04443226 8.27201021 44.86148493 0 55 C-6.66276432 61.8478411 -16.93862368 64.11481545 -26.1875 64.25 C-35.98783489 64.13951144 -44.62795633 61.72364212 -52 55 C-60.99858608 43.4964542 -61.15185448 29.99686253 -60 16 C-58.47567083 8.40307302 -55.4296871 2.2036929 -49.06640625 -2.3984375 C-34.56621423 -11.34151493 -13.42472634 -10.26014997 0 0 Z " fill="#FEFEFE" transform="translate(796,426)"/>
<path d="M0 0 C0.33 0 0.66 0 1 0 C1 34.32 1 68.64 1 104 C-19.46 104 -39.92 104 -61 104 C-54.25623583 90.51247166 -54.25623583 90.51247166 -51.36328125 85.828125 C-50.71343262 84.76827393 -50.06358398 83.70842285 -49.39404297 82.61645508 C-48.3636792 80.95005981 -48.3636792 80.95005981 -47.3125 79.25 C-45.79783562 76.78174703 -44.28739496 74.31092108 -42.77734375 71.83984375 C-42.19324738 70.8851545 -42.19324738 70.8851545 -41.59735107 69.91117859 C-37.12228879 62.5851351 -32.74739727 55.20011007 -28.375 47.8125 C-26.78810625 45.13260754 -25.20086611 42.4529206 -23.61328125 39.7734375 C-23.22715668 39.12169052 -22.8410321 38.46994354 -22.44320679 37.79844666 C-17.90126959 30.13787995 -13.31393456 22.50464825 -8.71826172 14.8762207 C-5.75319389 9.94893838 -2.82693717 5.00791573 0 0 Z " fill="#FEFDFE" transform="translate(210,220)"/>
</svg>
