<?xml version="1.0" encoding="UTF-8"?>
<svg version="1.1" xmlns="http://www.w3.org/2000/svg" width="875" height="792">
<path d="M0 0 C288.75 0 577.5 0 875 0 C875 261.36 875 522.72 875 792 C586.25 792 297.5 792 0 792 C0 530.64 0 269.28 0 0 Z " fill="#FE5500" transform="translate(0,0)"/>
<path d="M0 0 C288.75 0 577.5 0 875 0 C875 261.36 875 522.72 875 792 C586.25 792 297.5 792 0 792 C0 530.64 0 269.28 0 0 Z M86 83 C86 289.91 86 496.82 86 710 C298.85 710 511.7 710 731 710 C731 503.09 731 296.18 731 83 C518.15 83 305.3 83 86 83 Z " fill="#000000" transform="translate(0,0)"/>
<path d="M0 0 C1.52251625 -0.02352791 1.52251625 -0.02352791 3.07579041 -0.04753113 C4.18858871 -0.04931366 5.30138702 -0.05109619 6.44790649 -0.05293274 C8.20678947 -0.07286537 8.20678947 -0.07286537 10.00120544 -0.09320068 C13.21826897 -0.12529555 16.43499834 -0.14351093 19.65219831 -0.15303779 C21.66256339 -0.1596136 23.67287405 -0.16995854 25.68321609 -0.18154335 C32.69806111 -0.22128238 39.71274193 -0.24330149 46.72769165 -0.25117493 C53.26457502 -0.25904644 59.80028533 -0.30828319 66.33679426 -0.37624043 C71.95051113 -0.43256346 77.5638379 -0.45808805 83.17783511 -0.46012241 C86.53026486 -0.46196318 89.88145762 -0.47660271 93.23359299 -0.52293968 C96.97405704 -0.56676539 100.7112136 -0.56025611 104.45181274 -0.54121399 C105.56056259 -0.56526306 106.66931244 -0.58931213 107.81166077 -0.61408997 C115.13807481 -0.50402839 115.13807481 -0.50402839 117.84899044 2.14192295 C119.159228 4.19191116 120.15431541 6.16772065 121.07925415 8.41459656 C121.60688354 9.51908142 122.13451294 10.62356628 122.6781311 11.76152039 C123.13663452 12.87035583 123.59513794 13.97919128 124.0675354 15.12162781 C124.32754837 15.74749283 124.58756134 16.37335785 124.85545349 17.01818848 C125.70963326 19.08435221 126.55146138 21.15524952 127.39175415 23.22709656 C127.83753815 24.31664642 127.83753815 24.31664642 128.29232788 25.4282074 C134.52156347 40.66778546 140.28272263 56.07918847 145.96264648 71.53038025 C147.29292351 75.14852924 148.62732071 78.76515436 149.96203613 82.38166809 C150.72791485 84.46081049 151.4914051 86.54083383 152.25286865 88.62159729 C161.87490479 114.87829198 172.37614749 140.77882638 182.8454895 166.70658875 C187.04695735 177.11372889 191.24092059 187.52389686 195.4347229 197.93412781 C195.88817518 199.05937614 196.34162746 200.18462448 196.80882072 201.34397125 C205.09342147 221.9065763 213.27058103 242.51040415 221.39379883 263.13722229 C223.55364588 268.62065011 225.72370296 274.10001861 227.8956604 279.57865906 C236.97290207 302.49395039 245.98865834 325.43246452 254.91140747 348.40837097 C256.16667391 351.6396291 257.42324248 354.87037932 258.67984009 358.10112 C268.27027958 382.76845094 277.83038993 407.44513872 286.95425415 432.28959656 C287.27548248 433.16011658 287.59671082 434.0306366 287.92767334 434.92753601 C288.81457065 437.33527027 289.69446609 439.74542104 290.57144165 442.15678406 C290.95874199 443.20713333 290.95874199 443.20713333 291.35386658 444.27870178 C292.38475736 447.14011995 293.07925415 449.34607656 293.07925415 452.41459656 C294.39925415 452.41459656 295.71925415 452.41459656 297.07925415 452.41459656 C297.44405884 451.28151062 297.80886353 450.14842468 298.1847229 448.98100281 C300.72703573 441.36881948 303.57475827 433.86576947 306.39175415 426.35209656 C306.71093811 425.50013702 307.03012207 424.64817749 307.35897827 423.770401 C316.50644372 399.39417082 326.09545351 375.18940948 335.66995239 350.9785614 C337.05610467 347.47313897 338.4413351 343.96735359 339.82632446 340.46147156 C363.97122515 279.35297238 388.46920975 218.38836921 413.33682251 157.57035828 C416.2999252 150.32320252 419.25903126 143.0744244 422.2159729 135.82475281 C435.40274871 103.49516522 448.62657561 71.18123897 461.94445801 38.90541077 C462.77101139 36.90212856 463.59729417 34.89873467 464.42327881 32.8952179 C465.58104452 30.08746272 466.74012587 27.28025413 467.89956665 24.47319031 C468.23335831 23.66318573 468.56714996 22.85318115 468.91105652 22.01863098 C471.90039367 14.78852324 474.98705575 7.6011869 478.07925415 0.41459656 C492.38691551 0.36791642 506.69456509 0.33276019 521.00228691 0.31097221 C527.64531971 0.30051721 534.2883015 0.28632676 540.93130493 0.26371765 C547.33736805 0.24205042 553.74338199 0.23004088 560.14947891 0.22484207 C562.598408 0.22113529 565.04733427 0.21389731 567.49624252 0.20313644 C570.91573744 0.18870288 574.33502684 0.1866152 577.75454712 0.18754578 C578.77593781 0.18035522 579.79732849 0.17316467 580.84967041 0.16575623 C582.24212982 0.16988022 582.24212982 0.16988022 583.66271973 0.17408752 C584.47205397 0.17224394 585.28138821 0.17040035 586.11524773 0.1685009 C588.07925415 0.41459656 588.07925415 0.41459656 590.07925415 2.41459656 C590.27763868 5.27943383 590.34868491 8.04774142 590.33372974 10.91390133 C590.33853946 12.2557392 590.33853946 12.2557392 590.34344634 13.6246849 C590.35182149 16.65578796 590.34579599 19.68669726 590.33995056 22.71780396 C590.34296783 24.89941272 590.34685515 27.08102042 590.35154313 29.26262623 C590.3618867 35.28376627 590.35962524 41.30484719 590.35536253 47.32599223 C590.35290678 53.8093809 590.36189507 60.29275491 590.36940002 66.77613831 C590.38260651 79.48773385 590.38394236 92.19931058 590.38159976 104.91091161 C590.37976957 115.23788244 590.38152095 125.56484705 590.3858242 135.89181709 C590.38642659 137.37366451 590.38702779 138.85551194 590.38762781 140.33735936 C590.38853503 142.57015737 590.38944369 144.80295539 590.39036016 147.0357534 C590.39879406 167.80467868 590.40312236 188.5736016 590.39895344 209.34252834 C590.39879706 210.12605373 590.39864069 210.90957912 590.39847957 211.71684771 C590.39767375 215.68837674 590.39682798 219.65990577 590.39596627 223.63143479 C590.39579518 224.4202416 590.39562409 225.20904841 590.39544782 226.02175846 C590.39510117 227.61691867 590.39475264 229.21207888 590.39440223 230.80723909 C590.3890439 255.6331594 590.39697686 280.4590442 590.41543579 305.28495789 C590.43613373 333.15505604 590.44688274 361.02513219 590.44286031 388.89523846 C590.44246494 391.86467906 590.44210339 394.83411965 590.44176292 397.80356026 C590.44167219 398.53475159 590.44158146 399.26594293 590.44148798 400.01929157 C590.4403201 411.07616819 590.44698474 422.13302265 590.45757484 433.18989372 C590.46960074 445.75892582 590.47093657 458.32790548 590.45878468 470.89693838 C590.45286913 477.31542748 590.45186994 483.7338208 590.46378708 490.1523037 C590.47455563 496.02013366 590.47165129 501.88778683 590.45752539 507.75560821 C590.45485336 509.88613942 590.45732246 512.01668409 590.46526126 514.14720219 C590.47525698 517.0281697 590.46704068 519.90850938 590.45398426 522.78945065 C590.46129361 523.62969665 590.46860295 524.46994265 590.47613379 525.33565065 C590.42266254 530.97078871 590.42266254 530.97078871 588.75506474 533.12592823 C586.0047018 535.24090807 583.30606212 534.79660854 579.90151978 534.80278015 C579.17438278 534.80803711 578.44724579 534.81329407 577.69807434 534.81871033 C575.29366599 534.83191797 572.88991928 534.82316995 570.48550415 534.81303406 C568.81545891 534.81505458 567.14541453 534.81796584 565.47537231 534.82173157 C561.97492067 534.82615594 558.47469864 534.81972034 554.97427368 534.80570984 C550.48485284 534.78861775 545.99597001 534.79845834 541.50656891 534.81642723 C538.05791156 534.82726209 534.609382 534.82382013 531.16072083 534.81604385 C529.50529415 534.81404101 527.84985592 534.81650407 526.19444275 534.82348251 C523.88164489 534.83109227 521.56972119 534.81950044 519.25698853 534.80278015 C517.94033203 534.80039337 516.62367554 534.79800659 515.26712036 534.79554749 C512.07925415 534.41459656 512.07925415 534.41459656 510.40308398 533.34040803 C508.42095856 530.45695596 508.67172669 527.59692406 508.71011066 524.22066212 C508.70491837 523.10874087 508.70491837 523.10874087 508.69962117 521.97435656 C508.69163003 519.4705792 508.70518043 516.96737138 508.7184906 514.46362305 C508.71718333 512.65849474 508.71455837 510.85336698 508.7107231 509.04824227 C508.7039907 504.07246026 508.71604855 499.09687066 508.73105729 494.12111318 C508.74397381 488.76119755 508.7396313 483.40129338 508.73735046 478.04136658 C508.73577495 468.74981412 508.7452132 459.4583247 508.76206398 450.1667881 C508.78641175 436.73268019 508.79425492 423.29860286 508.79802795 409.86447527 C508.80459908 388.0702113 508.82457815 366.27598094 508.85293579 344.48173523 C508.88045927 323.30660674 508.90170122 302.13148737 508.91445923 280.9563446 C508.9152474 279.65181571 508.91603557 278.34728681 508.91684762 277.00322673 C508.92076264 270.45899956 508.92455379 263.91477232 508.92828333 257.37054503 C508.95939982 203.05187231 509.01225358 148.73323604 509.07925415 94.41459656 C506.20760645 97.11718435 505.04506787 99.48447514 503.60269165 103.18412781 C503.36477402 103.78667892 503.12685638 104.38923004 502.88172913 105.01004028 C502.35149208 106.35512205 501.82480002 107.70160501 501.30108643 109.04924011 C500.10918638 112.11453092 498.89895182 115.17248901 497.68986511 118.23103333 C496.99882734 119.97915019 496.30862647 121.72759805 495.61915588 123.47633362 C490.71769883 135.89495205 485.70445382 148.26886196 480.70566559 160.64852524 C479.3410564 164.02868348 477.97752668 167.40927708 476.61392212 170.7898407 C462.51039967 205.75216016 448.37211746 240.70041881 434.22460938 275.6449585 C431.73813236 281.78670866 429.25229518 287.92871755 426.76675415 294.07084656 C423.21072274 302.85826853 419.65383736 311.64534447 416.09634399 320.43217468 C414.79692728 323.6417037 413.49776819 326.85133676 412.19888306 330.06108093 C401.21526378 357.20188161 390.16147084 384.31391428 379.07925415 411.41459656 C378.71275757 412.31085754 378.34626099 413.20711853 377.96865845 414.13053894 C373.01974831 426.23108277 368.05748248 438.32608445 363.07925415 450.41459656 C362.56522034 451.66309387 362.56522034 451.66309387 362.040802 452.93681335 C354.05479749 472.3283689 346.01191645 491.69409299 337.76675415 510.97709656 C337.29723831 512.07785522 337.29723831 512.07785522 336.8182373 513.20085144 C335.93281483 515.27462961 335.04382335 517.34683635 334.1534729 519.41850281 C333.65420288 520.58196228 333.15493286 521.74542175 332.64053345 522.94413757 C330.89287486 526.82888609 329.00672231 530.61614377 327.07925415 534.41459656 C317.76080781 534.53043882 308.44260924 534.6192851 299.12360001 534.67365742 C294.7963849 534.69975341 290.46966233 534.73515058 286.14273071 534.79179382 C281.96706045 534.84611494 277.79186394 534.87601708 273.61586761 534.88898277 C272.02259613 534.89822262 270.42935064 534.91626634 268.83628082 534.94324684 C266.60452731 534.97954148 264.37473179 534.98454218 262.14273071 534.98222351 C260.23744598 534.9988781 260.23744598 534.9988781 258.29367065 535.01586914 C255.07925415 534.41459656 255.07925415 534.41459656 252.7066803 531.99717712 C250.43390991 528.39049265 248.64297436 524.73614616 246.89175415 520.85209656 C246.26696167 519.47126892 246.26696167 519.47126892 245.62954712 518.06254578 C236.43428381 497.25221303 228.64090959 475.76544041 220.7394104 454.43803406 C220.48206116 453.74505219 220.22471191 453.05207031 219.95956421 452.33808899 C218.80801458 449.2352331 217.66384853 446.13047245 216.53677368 443.01860046 C213.51364901 434.81029495 210.12004094 426.79980504 206.6456604 418.77397156 C199.55614237 402.37397917 192.93955142 385.7933054 186.33565903 369.19303894 C184.60872441 364.85437289 182.87765117 360.51735867 181.1468811 356.18022156 C178.9804525 350.75073248 176.81436471 345.32110869 174.65000916 339.89079285 C169.62557502 327.28499055 164.5890364 314.68408106 159.5440979 302.08647156 C158.84588757 300.34285632 158.14768097 298.59923958 157.44947815 296.85562134 C156.93407959 295.56852815 156.93407959 295.56852815 156.40826893 294.25543308 C156.06613204 293.40102099 155.72399515 292.54660891 155.37149048 291.66630554 C154.86084187 290.39109622 154.86084187 290.39109622 154.33987713 289.09012508 C142.54986347 259.64625997 130.7989007 230.18766324 119.15884399 200.68412781 C117.02690852 195.28072861 114.8913463 189.87876713 112.7550354 184.47709656 C112.39790466 183.57405792 112.04077393 182.67101929 111.67282104 181.74061584 C110.95509376 179.92578418 110.23736103 178.11095466 109.5196228 176.29612732 C107.77737974 171.89046324 106.03568295 167.48458329 104.2940979 163.07865906 C103.95167053 162.21237885 103.60924316 161.34609863 103.25643921 160.4535675 C101.06063112 154.89824615 98.86553734 149.34264292 96.67080688 143.78689575 C95.15143576 139.94091704 93.63174869 136.0950632 92.11203003 132.2492218 C91.39926591 130.44522754 90.68665218 128.64117386 89.97421265 126.83705139 C88.97706373 124.31196453 87.97936922 121.78709378 86.9815979 119.26225281 C86.66440796 118.45863815 86.34721802 117.6550235 86.02041626 116.82705688 C84.29962489 112.47396719 82.5624882 108.12805088 80.80630493 103.78910828 C80.43453629 102.8682695 80.06276764 101.94743073 79.67973328 100.99868774 C78.96268693 99.2246653 78.24278172 97.45179502 77.51966858 95.68023682 C77.19974442 94.88802231 76.87982025 94.0958078 76.55020142 93.27958679 C76.26556534 92.57986252 75.98092926 91.88013824 75.68766785 91.15921021 C75.07925415 89.41459656 75.07925415 89.41459656 75.07925415 87.41459656 C74.41925415 87.41459656 73.75925415 87.41459656 73.07925415 87.41459656 C73.08039331 88.82212361 73.08039331 88.82212361 73.08155549 90.25808555 C73.126349 145.82216231 73.16060724 201.3862374 73.18138481 256.95032858 C73.18388634 263.61590817 73.18647266 270.28148772 73.18911743 276.94706726 C73.18937895 277.61038514 73.18964047 278.27370302 73.18990991 278.95712144 C73.19843803 300.4709611 73.21346468 321.98479028 73.23184859 343.49862359 C73.25123456 366.22631477 73.2632428 388.95399976 73.26743114 411.68169898 C73.27018095 425.30288673 73.27887862 438.9240444 73.29508708 452.5452229 C73.30562582 461.87464522 73.30886186 471.20405189 73.30625691 480.53347973 C73.30497075 485.92310622 73.30699842 491.31268 73.3176651 496.70229721 C73.32734717 501.63015855 73.32792213 506.55793137 73.32105194 511.48579665 C73.32020195 513.27453445 73.32278162 515.06327762 73.32902052 516.85200474 C73.33697437 519.27189363 73.33276495 521.6914573 73.32534981 524.11134052 C73.33060383 524.81578886 73.33585786 525.52023719 73.3412711 526.24603245 C73.31593305 529.87192863 73.15295999 531.30403781 71.07925415 534.41459656 C68.61234101 534.72255011 66.39374398 534.83456523 63.92324829 534.81864929 C62.81813148 534.82894417 62.81813148 534.82894417 61.69068909 534.83944702 C59.24840169 534.85779076 56.80675209 534.85386684 54.3644104 534.84819031 C52.67051483 534.8527487 50.97662111 534.85805324 49.2827301 534.86407471 C45.72923275 534.87302082 42.17595996 534.87056599 38.62246704 534.86064148 C34.06452995 534.84915336 29.50736775 534.86935275 24.94953251 534.89855862 C21.45025188 534.9168901 17.95115794 534.91663424 14.45184135 534.9109211 C12.77128449 534.91076749 11.09071529 534.91684447 9.41020393 534.92921257 C7.06119086 534.94406289 4.71362188 534.93349104 2.36465454 534.91630554 C1.66792633 534.92597351 0.97119812 534.93564148 0.25335693 534.94560242 C-2.59243344 534.90192288 -4.42254745 534.85587935 -6.59918559 532.92790657 C-8.52326224 529.26874607 -8.33225177 525.73625879 -8.29826927 521.70043087 C-8.30480976 520.36019659 -8.30480976 520.36019659 -8.31148237 518.99288687 C-8.32249329 515.9773756 -8.31198941 512.96231635 -8.30169678 509.94680786 C-8.30515102 507.77172153 -8.30991401 505.59663695 -8.31587851 503.42155606 C-8.32845004 497.42770862 -8.32219022 491.43400371 -8.31291986 485.44015563 C-8.30615486 478.98270216 -8.31659786 472.52527385 -8.32485962 466.06782532 C-8.33803739 454.14348158 -8.3363274 442.21918317 -8.32812521 430.29483674 C-8.32058596 419.28054811 -8.31860498 408.26627623 -8.32219315 397.25198555 C-8.3224223 396.52209113 -8.32265146 395.79219671 -8.32288756 395.04018428 C-8.32382153 392.07750202 -8.32477673 389.11481977 -8.32576685 386.15213753 C-8.33494866 358.34686096 -8.32661566 330.5416135 -8.31047616 302.73634142 C-8.29623731 278.01750528 -8.29751392 253.2987155 -8.31185913 228.57987976 C-8.32791246 200.82476196 -8.33429905 173.06966987 -8.32502234 145.31454808 C-8.32406015 142.35749599 -8.32312163 139.4004439 -8.32219315 136.4433918 C-8.32195591 135.71525977 -8.32171868 134.98712773 -8.32147426 134.23693109 C-8.31805762 123.22720603 -8.32206048 112.21749952 -8.32963181 101.20777702 C-8.33819463 88.69368631 -8.33580711 76.17965222 -8.31978957 63.66556793 C-8.31188119 57.27542101 -8.30885882 50.88536841 -8.31873703 44.49522209 C-8.32763138 38.65337328 -8.32283848 32.81170685 -8.30680437 26.96987475 C-8.30343416 24.84882625 -8.30520036 22.72776256 -8.31243174 20.60672372 C-8.32146538 17.7385659 -8.31228882 14.87104482 -8.29826927 12.0029211 C-8.30529277 11.16645549 -8.31231627 10.32998987 -8.3195526 9.46817681 C-8.26400466 3.83888799 -8.26400466 3.83888799 -6.5375478 1.70486892 C-4.31289056 -0.07049617 -2.82763377 0.02441711 0 0 Z " fill="#000000" transform="translate(122.92074584960938,132.5854034423828)"/>
<path d="M0 0 C20.13 0 40.26 0 61 0 C61 261.36 61 522.72 61 792 C41.2 792 21.4 792 1 792 C1.33 791.34 1.66 790.68 2 790 C2.09545617 788.23834295 2.12597563 786.47302922 2.12649983 784.70878798 C2.12925958 783.57696273 2.13201932 782.44513748 2.13486269 781.2790145 C2.13280737 780.02250621 2.13075205 778.76599791 2.12863445 777.47141361 C2.12997974 776.12781818 2.13176285 774.78422313 2.13394669 773.4406288 C2.13870319 769.71938341 2.13716652 765.99816231 2.13466892 762.27691568 C2.13304337 758.23950714 2.13717036 754.20210397 2.14057809 750.16469711 C2.14574569 743.07896788 2.14714695 735.9932455 2.14612198 728.90751457 C2.14460154 718.37102884 2.14874878 707.83455072 2.1539966 697.29806647 C2.16368526 677.38852688 2.1664814 657.47898985 2.16705366 637.56944818 C2.16751256 622.19957224 2.16956751 606.82969731 2.17275429 591.4598217 C2.17365178 587.0415139 2.17454159 582.6232061 2.17542917 578.2048983 C2.17565021 577.10661169 2.17587126 576.00832508 2.17609901 574.87675705 C2.18225618 543.96950471 2.18619927 513.06225272 2.18575573 482.15499973 C2.18574015 480.9888964 2.18572457 479.82279306 2.18570852 478.62135326 C2.18562541 472.71055451 2.18552637 466.79975577 2.18542381 460.88895703 C2.18540387 459.71497179 2.18538392 458.54098654 2.18536337 457.33142598 C2.18532294 454.95734068 2.18528114 452.58325538 2.18523798 450.20917008 C2.18462501 413.25915308 2.19213461 376.30914524 2.20581055 339.35913086 C2.22115534 297.88270641 2.22977775 256.406288 2.22884732 214.92986053 C2.22877269 210.51123838 2.22872399 206.09261622 2.22869301 201.67399406 C2.22867553 200.04192783 2.22867553 200.04192783 2.22865769 198.37689055 C2.22862686 180.83163834 2.23502549 163.28639406 2.24362527 145.7411442 C2.25208261 128.1227099 2.25310682 110.50428725 2.24651595 92.88585205 C2.24280749 82.40629991 2.24469107 71.92678309 2.25445829 61.44723466 C2.26042442 54.45810109 2.25920067 47.46899329 2.25198779 40.47986094 C2.24807758 36.49046257 2.24741219 32.50113292 2.25544515 28.5117392 C2.26267775 24.88833028 2.26084274 21.26504786 2.25152128 17.64164475 C2.24896576 15.71240078 2.25630173 13.78315161 2.26394406 11.85392109 C2.25919325 10.71959232 2.25444244 9.58526355 2.24954766 8.41656119 C2.24963588 7.4354226 2.2497241 6.45428401 2.249815 5.44341395 C2.1659512 2.74279803 2.1659512 2.74279803 0 0 Z " fill="#FE5500" transform="translate(814,0)"/>
<path d="M0 0 C27.39 0 54.78 0 83 0 C83 16.5 83 33 83 50 C79.34164062 50.04898438 75.68328125 50.09796875 71.9140625 50.1484375 C68.38276977 50.20240008 64.85154662 50.25972615 61.3203125 50.31738281 C58.86040398 50.35573762 56.40043813 50.39057884 53.94042969 50.421875 C50.41059837 50.46738451 46.88116405 50.52540198 43.3515625 50.5859375 C42.24632233 50.59748871 41.14108215 50.60903992 40.00234985 50.62094116 C38.98144257 50.64081085 37.96053528 50.66068054 36.90869141 50.68115234 C36.00712311 50.69447601 35.10555481 50.70779968 34.17666626 50.7215271 C31.79101999 50.80120842 31.79101999 50.80120842 30 53 C29.80253121 55.8546004 29.73238683 58.61221868 29.74831772 61.46807003 C29.74541084 62.35925186 29.74250396 63.25043369 29.73950899 64.16862103 C29.73214537 67.18824067 29.73918177 70.20766113 29.74603271 73.22727966 C29.74373079 75.40063855 29.74055608 77.57399667 29.73657823 79.74735314 C29.72818464 85.74569294 29.73237609 91.74396958 29.73855066 97.74230969 C29.74305562 104.20115609 29.73610114 110.65999125 29.73059082 117.11883545 C29.72179996 129.04939854 29.72294829 140.9799415 29.72841376 152.91050579 C29.73343787 163.93129154 29.73476155 174.95206986 29.73236847 185.97285652 C29.7322157 186.70288842 29.73206293 187.43292032 29.73190553 188.1850744 C29.73128289 191.14825929 29.73064609 194.11144417 29.729986 197.07462905 C29.7238629 224.8927879 29.72942288 252.71093383 29.7401798 280.52909069 C29.74967057 305.26101856 29.74882317 329.99292583 29.73925781 354.72485352 C29.72855551 382.48947483 29.72429809 410.25408472 29.73048234 438.01870781 C29.73112381 440.97691444 29.73174948 443.93512108 29.73236847 446.89332771 C29.73252662 447.62175275 29.73268478 448.35017778 29.73284773 449.1006763 C29.73512565 460.11568366 29.73245657 471.13068279 29.72740936 482.14568901 C29.72170062 494.66713609 29.72329281 507.18855801 29.73397085 519.71000224 C29.73924313 526.1041682 29.74125796 532.49829227 29.73467255 538.89245796 C29.72874298 544.73805053 29.73193836 550.5835621 29.74262765 556.42914725 C29.74487447 558.55160244 29.74369698 560.67406438 29.73887607 562.79651528 C29.73285391 565.66647245 29.7389717 568.5361468 29.74831772 571.40608883 C29.74363539 572.24312614 29.73895305 573.08016345 29.73412883 573.94256553 C29.75961705 577.81967907 29.7986745 579.69801176 32 583 C34.25579898 583.47623667 34.25579898 583.47623667 36.90869141 583.43237305 C37.92959869 583.45216721 38.95050598 583.47196136 40.00234985 583.49235535 C41.10759003 583.49874527 42.2128302 583.50513519 43.3515625 583.51171875 C44.4807309 583.52966995 45.60989929 583.54762115 46.77328491 583.56611633 C50.39048493 583.62042888 54.00755146 583.65418266 57.625 583.6875 C60.07293533 583.72065452 62.520853 583.7551424 64.96875 583.79101562 C70.97918813 583.87868484 76.98900634 583.93857688 83 584 C83 598.19 83 612.38 83 627 C55.61 627 28.22 627 0 627 C0 420.09 0 213.18 0 0 Z " fill="#FEFEFE" transform="translate(86,83)"/>
<path d="M0 0 C19.14 0 38.28 0 58 0 C58 14.19 58 28.38 58 43 C38.2 43 18.4 43 -2 43 C-1.67 42.34 -1.34 41.68 -1 41 C-0.84255174 37.9397749 -0.74125654 34.89840981 -0.68359375 31.8359375 C-0.66494263 31.03196533 -0.6462915 30.22799316 -0.6270752 29.3996582 C-0.55868985 26.39155239 -0.49859713 23.38326267 -0.4375 20.375 C-0.293125 13.65125 -0.14875 6.9275 0 0 Z " fill="#FFFEFD" transform="translate(817,749)"/>
<path d="M0 0 C20.13 0 40.26 0 61 0 C61 13.86 61 27.72 61 42 C41.86 42 22.72 42 3 42 C2.625 22.6875 2.625 22.6875 2.52197266 16.6003418 C2.48676725 15.00828369 2.45084605 13.41624118 2.4140625 11.82421875 C2.40270264 10.99748657 2.39134277 10.17075439 2.37963867 9.31896973 C2.28026838 5.39863231 2.22140395 3.33210592 0 0 Z " fill="#FFFFFF" transform="translate(814,0)"/>
</svg>
