<?xml version="1.0" encoding="UTF-8"?>
<svg version="1.1" xmlns="http://www.w3.org/2000/svg" width="730" height="692">
<path d="M0 0 C1.34775071 2.59049679 2.46054917 5.13275481 3.38183594 7.90258789 C3.63738251 8.66619629 3.89292908 9.42980469 4.15621948 10.21655273 C4.4295108 11.04356689 4.70280212 11.87058105 4.984375 12.72265625 C5.42198654 14.03556641 5.42198654 14.03556641 5.86843872 15.375 C6.83215146 18.26978301 7.79122924 21.16607674 8.75 24.0625 C9.42845129 26.10541955 10.10700095 28.14830643 10.78564453 30.19116211 C16.66898321 47.92198895 22.45531135 65.68400421 28.2220459 83.45301819 C31.9630438 94.97466138 35.73301758 106.48683282 39.5 118 C44.93643172 134.61859185 50.36160089 151.2407703 55.76879883 167.86889648 C59.38671573 178.99354122 63.01739438 190.11393288 66.66015625 201.23046875 C67.06129135 202.4548616 67.46242645 203.67925446 67.87571716 204.94075012 C69.84407166 210.94833902 71.81356049 216.95555214 73.78491211 222.9621582 C74.51289409 225.18309366 75.24084159 227.40404043 75.96875 229.625 C76.28703262 230.59338303 76.60531525 231.56176605 76.9332428 232.55949402 C80.03099237 242.01738876 83.00238955 251.5075669 86 261 C155.96 261.33 225.92 261.66 298 262 C298 262.66 298 263.32 298 264 C320.11 264 342.22 264 365 264 C362.36511489 266.63488511 360.28194218 268.65379706 357.33984375 270.7421875 C356.63859375 271.24363281 355.93734375 271.74507813 355.21484375 272.26171875 C354.46332031 272.79410156 353.71179688 273.32648438 352.9375 273.875 C351.31059068 275.03821367 349.68430869 276.20230514 348.05859375 277.3671875 C347.22183105 277.9662793 346.38506836 278.56537109 345.52294922 279.18261719 C341.49008391 282.0876539 337.49523431 285.04353487 333.5 288 C327.36016509 292.53794803 321.19644749 297.03967 315 301.5 C305.61219227 308.25983749 296.30303505 315.12417344 287 322 C276.9598876 329.42059673 266.90202492 336.81196039 256.76928711 344.10571289 C251.31893063 348.0339888 245.90316826 352.00712036 240.5 356 C234.35983731 360.53751011 228.19645339 365.03966576 222 369.5 C212.61219227 376.25983749 203.30303505 383.12417344 194 390 C183.90487911 397.46125323 173.78907044 404.88813024 163.59790039 412.21777344 C155.98577703 417.70615416 148.48516872 423.34023346 141 429 C142.86505716 436.01362099 144.86946288 442.95817134 147.08984375 449.8671875 C147.38605118 450.79463776 147.68225861 451.72208801 147.98744202 452.67764282 C148.96807678 455.74430638 149.95259006 458.80970703 150.9375 461.875 C151.28192139 462.94967529 151.62634277 464.02435059 151.98120117 465.1315918 C158.32450607 484.9217203 164.7940433 504.66996555 171.28634644 524.41156006 C176.93324006 541.58384469 182.51609585 558.77486489 188 576 C194.84677249 597.50588514 201.85591615 618.95667428 208.91210938 640.39453125 C210.88006855 646.37376472 212.84141518 652.35513471 214.79901123 658.33776855 C215.63201424 660.87788374 216.46743093 663.41707964 217.30645752 665.9552002 C218.59911332 669.86594558 219.87986947 673.78050028 221.16015625 677.6953125 C221.76131508 679.50489944 221.76131508 679.50489944 222.37461853 681.3510437 C222.73447342 682.45739166 223.09432831 683.56373962 223.46508789 684.70361328 C223.7865126 685.68081329 224.10793732 686.65801331 224.43910217 687.66482544 C225 690 225 690 224 692 C57.49999999 571.74999999 57.49999999 571.74999999 55.24902344 570.12426758 C53.75231299 569.04332809 52.25556832 567.96243599 50.75878906 566.8815918 C46.95817363 564.1370246 43.15819702 561.39158034 39.359375 558.64453125 C31.87642293 553.23460715 24.38530084 547.83718814 16.86572266 542.47827148 C11.55114598 538.68764692 6.27095156 534.85102175 1 531 C-1.66148909 532.27242652 -4.07233827 533.65600662 -6.4765625 535.36328125 C-7.137771 535.83113037 -7.79897949 536.29897949 -8.48022461 536.78100586 C-9.18800049 537.28639893 -9.89577637 537.79179199 -10.625 538.3125 C-11.37209229 538.84302979 -12.11918457 539.37355957 -12.88891602 539.92016602 C-20.53356244 545.35853767 -28.1367904 550.85438418 -35.73388672 556.35888672 C-39.486448 559.07648173 -43.24343419 561.78794473 -47 564.5 C-48.50002146 565.58330362 -50.00002146 566.66663696 -51.5 567.75 C-186.5 665.25 -186.5 665.25 -188.75317383 666.87719727 C-190.24271475 667.95303977 -191.7321367 669.02904702 -193.22143555 670.10522461 C-197.13046482 672.92957858 -201.04194514 675.75045282 -204.95703125 678.56640625 C-206.17616211 679.44425781 -206.17616211 679.44425781 -207.41992188 680.33984375 C-208.97123996 681.45679277 -210.52327969 682.57274047 -212.07617188 683.6875 C-215.79725776 686.36831898 -219.45053915 689.092092 -223 692 C-223.66 691.67 -224.32 691.34 -225 691 C-224.79749634 690.38440216 -224.59499268 689.76880432 -224.38635254 689.134552 C-215.61023597 662.4502569 -206.84193941 635.76438613 -198.3125 609 C-191.94602034 589.02544778 -185.4994598 569.07765447 -179.02525711 549.13782501 C-177.73847936 545.17449458 -176.452124 541.21102706 -175.16577148 537.24755859 C-174.91146268 536.46399176 -174.65715387 535.68042492 -174.39513874 534.87311363 C-173.62538893 532.5013518 -172.85565974 530.12958328 -172.0859375 527.7578125 C-171.83206079 526.97555172 -171.57818409 526.19329094 -171.31661415 525.38732529 C-166.25732986 509.79786548 -161.20282307 494.20687147 -156.16345215 478.61096191 C-155.319149 475.99825328 -154.47384789 473.38587124 -153.62756348 470.77380371 C-148.91728635 456.23003216 -144.31123126 441.66744417 -140 427 C-140.90274658 426.56457886 -140.90274658 426.56457886 -141.82373047 426.12036133 C-144.79388366 424.59130221 -147.42877839 422.64517296 -150.125 420.6875 C-150.73190674 420.25018555 -151.33881348 419.81287109 -151.96411133 419.36230469 C-153.28410516 418.41059229 -154.60316081 417.45757762 -155.92138672 416.50341797 C-158.0293774 414.97875193 -160.14120418 413.45953566 -162.25390625 411.94140625 C-170.84265183 405.76305056 -179.38120889 399.52005857 -187.89111328 393.23364258 C-196.2143588 387.09126792 -204.60399195 381.04233081 -213 375 C-222.28521077 368.31773925 -231.54949699 361.61110993 -240.75 354.8125 C-247.26868079 349.99605784 -253.8244828 345.23977065 -260.4296875 340.54296875 C-271.66515843 332.55154225 -282.80144428 324.42577605 -293.89111328 316.23364258 C-302.2143588 310.09126792 -310.60399195 304.04233081 -319 298 C-321.98003389 295.85536764 -324.9593295 293.70971935 -327.9375 291.5625 C-328.67097656 291.03382324 -329.40445313 290.50514648 -330.16015625 289.96044922 C-336.60196005 285.30756694 -342.99680247 280.59186857 -349.36889648 275.84399414 C-353.93195795 272.46056079 -358.56912874 269.2557325 -363.34545898 266.17944336 C-363.89145752 265.79022705 -364.43745605 265.40101074 -365 265 C-365 264.67 -365 264.34 -365 264 C-342.89 264 -320.78 264 -298 264 C-298 263.34 -298 262.68 -298 262 C-227.71 262 -157.42 262 -85 262 C-84.34 259.03 -83.68 256.06 -83 253 C-82.42035024 251.01013741 -81.80946994 249.02894511 -81.15917969 247.06103516 C-80.8035495 245.97753784 -80.44791931 244.89404053 -80.08151245 243.77770996 C-79.69883209 242.6264563 -79.31615173 241.47520264 -78.921875 240.2890625 C-78.30438273 238.41326399 -77.68689123 236.53746522 -77.06943321 234.66165543 C-76.41573921 232.67853617 -75.75992615 230.69612965 -75.10345459 228.71392822 C-73.73143914 224.57097259 -72.36539632 220.42606352 -71.00048828 216.28076172 C-69.62216722 212.09537479 -68.24366028 207.91005085 -66.8631897 203.72537231 C-63.17181014 192.53451699 -59.51456239 181.33280619 -55.875 170.125 C-50.6049383 153.90957641 -45.30648655 137.70353755 -40 121.5 C-34.61171796 105.04597145 -29.23161778 88.58936532 -23.875 72.125 C-23.3220404 70.42585647 -22.76906194 68.72671908 -22.21606445 67.02758789 C-21.089835 63.56706014 -19.96360896 60.10653128 -18.83740234 56.64599609 C-18.54315369 55.74185974 -18.24890503 54.83772339 -17.94573975 53.90618896 C-17.28262675 51.86849129 -16.61958785 49.83076949 -15.956604 47.79302979 C-13.73204922 40.95590648 -11.50585518 34.11932043 -9.27764893 27.28338623 C-8.55486794 25.06502607 -7.83265289 22.84648144 -7.11102295 20.62774658 C-6.11062325 17.55213711 -5.10828075 14.47716738 -4.10546875 11.40234375 C-3.80514236 10.47750687 -3.50481598 9.55266998 -3.19538879 8.59980774 C-2.91974594 7.75597031 -2.64410309 6.91213287 -2.36010742 6.04272461 C-2.12031662 5.3063829 -1.88052582 4.5700412 -1.63346863 3.81138611 C-1 2 -1 2 0 0 Z " fill="#010201" transform="translate(365,0)"/>
<path d="M0 0 C1.73882414 2.60823622 2.58515487 4.40496109 3.53369141 7.32055664 C3.82289459 8.20203873 4.11209778 9.08352081 4.4100647 9.99171448 C4.72075897 10.95480026 5.03145325 11.91788605 5.3515625 12.91015625 C5.68231781 13.92339462 6.01307312 14.936633 6.35385132 15.98057556 C7.44886985 19.33972789 8.53702413 22.70106067 9.625 26.0625 C10.39295643 28.42391684 11.16118955 30.78524371 11.9296875 33.14648438 C17.66051869 50.77640845 23.31369269 68.43108044 28.94189453 86.09399414 C32.51124671 97.28553373 36.12076493 108.462907 39.78125 119.625 C40.17707275 120.8322876 40.57289551 122.0395752 40.98071289 123.28344727 C42.90543265 129.15022108 44.834749 135.0154435 46.76953125 140.87890625 C47.46098243 142.98175606 48.15239101 145.08461988 48.84375 147.1875 C49.16476685 148.15574707 49.48578369 149.12399414 49.81652832 150.12158203 C50.10588257 151.00313965 50.39523682 151.88469727 50.69335938 152.79296875 C51.07397522 153.94575317 51.07397522 153.94575317 51.46228027 155.12182617 C52 157 52 157 52 159 C108.1 159 164.2 159 222 159 C216.38095238 164.61904762 216.38095238 164.61904762 213.4609375 166.62109375 C212.80810791 167.07411865 212.15527832 167.52714355 211.48266602 167.99389648 C210.78713623 168.47028564 210.09160645 168.9466748 209.375 169.4375 C203.03345191 173.84585978 196.76763748 178.33906702 190.5625 182.9375 C182.16515273 189.1528863 173.71277206 195.28757774 165.23388672 201.39111328 C161.48640231 204.09012118 157.74338799 206.79531494 154 209.5 C149.51389621 212.74131453 145.02695169 215.98141954 140.53515625 219.21484375 C132.03102767 225.3401951 123.56718202 231.51610659 115.13867188 237.74511719 C108.71966416 242.4837147 102.26139815 247.16616591 95.78515625 251.82617188 C92.50147201 254.18933801 89.22158806 256.55226599 86 259 C87.62831147 267.34711152 90.27911765 275.31456343 92.953125 283.37109375 C93.45064409 284.88057725 93.9477926 286.39018293 94.44459534 287.89990234 C95.76801239 291.91786781 97.09682228 295.93403 98.42676163 299.94984055 C99.80546364 304.1159985 101.17908411 308.28383164 102.5534668 312.45141602 C108.00199394 328.96557801 113.47584893 345.47127446 118.98641968 361.96484375 C121.07233253 368.2084805 123.15442833 374.45338891 125.23376465 380.69921875 C125.76111123 382.28268671 126.28888646 383.86601196 126.8170166 385.44921875 C128.45026387 390.346815 130.0743749 395.2472588 131.68490601 400.15237427 C132.17982216 401.65510436 132.67780371 403.15682895 133.17910767 404.65744019 C133.85566859 406.68434197 134.52106331 408.71457044 135.18359375 410.74609375 C135.56056396 411.88747803 135.93753418 413.0288623 136.32592773 414.20483398 C137 417 137 417 136 420 C135.51869629 419.64397705 135.03739258 419.2879541 134.54150391 418.92114258 C125.7257101 412.40362559 116.89832639 405.90453423 108 399.5 C101.80344165 395.03980999 95.64023962 390.53740354 89.5 386 C80.38251634 379.26446941 71.20059231 372.62136363 62 366 C52.79940403 359.37863374 43.61766212 352.73529322 34.5 346 C28.08424504 341.2613459 21.65041732 336.5491692 15.1875 331.875 C14.45273437 331.34261719 13.71796875 330.81023437 12.9609375 330.26171875 C11.59785797 329.2779749 10.23012074 328.30063956 8.85693359 327.33105469 C7.66201807 326.47453622 6.48558341 325.59130198 5.33447266 324.67675781 C3.6621367 323.3388003 3.6621367 323.3388003 1 322 C-3.9551332 322.78110474 -8.081664 326.95461527 -11.9375 330 C-13.46741257 331.18922257 -14.99867998 332.37670409 -16.53125 333.5625 C-17.28921875 334.14902344 -18.0471875 334.73554688 -18.828125 335.33984375 C-21.81891523 337.62596938 -24.86426464 339.82651256 -27.9375 342 C-28.49598633 342.39541992 -29.05447266 342.79083984 -29.62988281 343.19824219 C-30.79665665 344.02374621 -31.96365401 344.84893437 -33.13085938 345.67382812 C-45.39834512 354.37771822 -57.51213576 363.29516987 -69.60888672 372.23388672 C-74.35999147 375.74312623 -79.11681291 379.24461276 -83.87255859 382.74755859 C-87.84531489 385.67420749 -91.81667846 388.60270774 -95.78515625 391.53515625 C-108.77898601 401.13208825 -121.84940757 410.61901456 -135 420 C-136.51958441 416.96083117 -135.27248989 415.15017043 -134.2277832 411.96386719 C-134.02556436 411.34014064 -133.82334551 410.71641409 -133.61499882 410.07378674 C-132.93394156 407.97912309 -132.24231645 405.88810066 -131.55078125 403.796875 C-131.06505132 402.30975448 -130.58000946 400.82240906 -130.09561157 399.33485413 C-129.05445698 396.1421304 -128.00873688 392.9509524 -126.95944214 389.76089478 C-125.30669408 384.73585709 -123.66419434 379.70751018 -122.02368164 374.6784668 C-120.34414337 369.53132432 -118.6640233 364.38437666 -116.98039246 359.23857117 C-112.02040897 344.07900574 -107.09870762 328.90729301 -102.20126343 313.72741699 C-100.9737428 309.92323888 -99.7423241 306.12032713 -98.51098633 302.31738281 C-93.85803371 287.92214883 -89.3452474 273.49117566 -85 259 C-85.50609299 258.63572906 -86.01218597 258.27145813 -86.53361511 257.89614868 C-95.22209229 251.64159791 -103.89022732 245.36261843 -112.5 239 C-121.61746751 232.26444757 -130.79940792 225.62136346 -140 219 C-150.00550398 211.79936792 -159.97688478 204.55749214 -169.89208984 197.23291016 C-178.21504168 191.09079319 -186.60495625 185.04299184 -195 179 C-198.20917464 176.68866505 -201.41729179 174.37586948 -204.625 172.0625 C-205.34695557 171.54292725 -206.06891113 171.02335449 -206.81274414 170.48803711 C-208.87935601 168.99768509 -210.94130826 167.50127188 -213 166 C-214.13840332 165.17024658 -214.13840332 165.17024658 -215.29980469 164.32373047 C-216.03360352 163.78248535 -216.76740234 163.24124023 -217.5234375 162.68359375 C-218.19036621 162.1930249 -218.85729492 161.70245605 -219.54443359 161.19702148 C-220.02477051 160.80200439 -220.50510742 160.4069873 -221 160 C-221 159.67 -221 159.34 -221 159 C-165.56 158.67 -110.12 158.34 -53 158 C-47.84375 142.551875 -42.6875 127.10375 -37.375 111.1875 C-35.77962402 106.41047607 -34.18424805 101.63345215 -32.54052734 96.71166992 C-24.84668338 73.65487915 -17.21687329 50.57930291 -9.72445869 27.45620823 C-8.48608283 23.63645728 -7.2441287 19.81788073 -6 16 C-5.6359972 14.88150476 -5.6359972 14.88150476 -5.26464081 13.74041367 C-4.57098786 11.61379721 -3.87296007 9.48867338 -3.17333984 7.36401367 C-2.7770639 6.1564592 -2.38078796 4.94890472 -1.97250366 3.70475769 C-1 1 -1 1 0 0 Z " fill="#00FE01" transform="translate(365,151)"/>
</svg>
