<?xml version="1.0" encoding="UTF-8"?>
<svg version="1.1" xmlns="http://www.w3.org/2000/svg" width="340" height="816">
<path d="M0 0 C10.56 0 21.12 0 32 0 C32 0.66 32 1.32 32 2 C34.31 2 36.62 2 39 2 C39 2.66 39 3.32 39 4 C40.98 4 42.96 4 45 4 C45 4.66 45 5.32 45 6 C46.32 6 47.64 6 49 6 C49 6.66 49 7.32 49 8 C50.32 8 51.64 8 53 8 C53 8.66 53 9.32 53 10 C53.99 10 54.98 10 56 10 C56 10.66 56 11.32 56 12 C56.66 12 57.32 12 58 12 C58 12.66 58 13.32 58 14 C58.99 14 59.98 14 61 14 C61 14.66 61 15.32 61 16 C61.66 16 62.32 16 63 16 C63 16.66 63 17.32 63 18 C63.66 18 64.32 18 65 18 C65 18.66 65 19.32 65 20 C65.66 20 66.32 20 67 20 C67 20.66 67 21.32 67 22 C67.66 22 68.32 22 69 22 C69 22.66 69 23.32 69 24 C69.66 24 70.32 24 71 24 C71 24.66 71 25.32 71 26 C71.66 26 72.32 26 73 26 C73.33 27.32 73.66 28.64 74 30 C74.66 30 75.32 30 76 30 C76.33 31.32 76.66 32.64 77 34 C77.66 34 78.32 34 79 34 C79 35.32 79 36.64 79 38 C79.66 38 80.32 38 81 38 C81.99 40.97 81.99 40.97 83 44 C83.66 44 84.32 44 85 44 C85 45.32 85 46.64 85 48 C85.66 48 86.32 48 87 48 C87 49.32 87 50.64 87 52 C87.66 52 88.32 52 89 52 C89 53.32 89 54.64 89 56 C89.66 56 90.32 56 91 56 C93.63537118 63.90611355 93.17981101 71.76865163 93 80 C93.66 80 94.32 80 95 80 C95 80.66 95 81.32 95 82 C94.34 82 93.68 82 93 82 C93.02320313 82.89460938 93.04640625 83.78921875 93.0703125 84.7109375 C93.18043474 92.08912758 92.84659266 98.84445343 91 106 C90.34 106 89.68 106 89 106 C89 107.98 89 109.96 89 112 C88.34 112 87.68 112 87 112 C87.33 114.64 87.66 117.28 88 120 C90.31 120 92.62 120 95 120 C95 120.66 95 121.32 95 122 C96.65 122 98.3 122 100 122 C100 122.66 100 123.32 100 124 C101.65 124 103.3 124 105 124 C105 124.66 105 125.32 105 126 C106.32 126 107.64 126 109 126 C109 126.66 109 127.32 109 128 C110.32 128 111.64 128 113 128 C113 128.66 113 129.32 113 130 C113.66 130 114.32 130 115 130 C115 130.66 115 131.32 115 132 C115.99 132 116.98 132 118 132 C118 132.66 118 133.32 118 134 C118.66 134 119.32 134 120 134 C120 134.66 120 135.32 120 136 C120.66 136 121.32 136 122 136 C122 136.66 122 137.32 122 138 C122.66 138 123.32 138 124 138 C127 143.75 127 143.75 127 146 C127.66 146 128.32 146 129 146 C130.95109249 152.53352787 131.28153757 158.45958271 131.24888897 165.25502586 C131.25149625 166.37460731 131.25410354 167.49418876 131.25678983 168.64769691 C131.26309796 172.40812257 131.25512146 176.16838175 131.24723816 179.92880249 C131.24771502 182.64840284 131.25120633 185.36799746 131.25455457 188.08759558 C131.26023665 194.00499314 131.2584911 199.92235233 131.2518692 205.83974838 C131.24204971 214.63878354 131.24368439 223.43779062 131.2476195 232.23682905 C131.25389477 247.039101 131.250723 261.84135702 131.24202538 276.64362717 C131.23341441 291.30138675 131.22850514 305.95913917 131.22869301 320.6169014 C131.22870448 321.98396542 131.22870448 321.98396542 131.22871618 323.3786469 C131.22875708 327.07802521 131.22882269 330.77740353 131.22892199 334.47678185 C131.22982817 369.18271194 131.219881 403.88863113 131.20449232 438.59455744 C131.19086147 469.44992139 131.18463132 500.30527759 131.18530273 531.16064453 C131.18534315 533.14267534 131.18538351 535.12470614 131.18542381 537.10673694 C131.18544416 538.08660247 131.18546452 539.066468 131.18548548 540.07602643 C131.18558627 545.0082159 131.18567686 549.94040536 131.18575573 554.87259483 C131.18577244 555.84557654 131.18578916 556.81855825 131.18580638 557.82102426 C131.18617122 583.58518383 131.18163652 609.34934243 131.17542917 635.11350119 C131.17520889 636.02948224 131.17498862 636.94546329 131.17476168 637.88920134 C131.17387342 641.57278465 131.17298503 645.25636797 131.17207072 648.93995128 C131.16890703 661.77285436 131.16740098 674.60575668 131.16695923 687.43866012 C131.16636311 703.96871828 131.16238793 720.49877003 131.15252777 737.02882545 C131.14739954 745.77783774 131.1450078 754.52684063 131.14652396 763.27585435 C131.14725538 769.10997157 131.14437728 774.9440796 131.13848015 780.77819387 C131.13521323 784.10860325 131.13410188 787.43897623 131.13624074 790.76938908 C131.13828495 794.34628766 131.13427911 797.92312754 131.12863445 801.50002098 C131.13068977 802.54813947 131.13274509 803.59625797 131.13486269 804.67613763 C131.13072308 806.09458758 131.13072308 806.09458758 131.12649983 807.54169309 C131.12606258 808.77016328 131.12606258 808.77016328 131.1256165 810.02345105 C131 812 131 812 130 814 C129.34 814 128.68 814 128 814 C128 814.66 128 815.32 128 816 C97.97 816 67.94 816 37 816 C37 815.34 37 814.68 37 814 C36.34 814 35.68 814 35 814 C35 715.66 35 617.32 35 516 C25.1 516 15.2 516 5 516 C5.00222061 519.72892548 5.00444122 523.45785095 5.00672913 527.29977417 C5.02661099 561.46257681 5.04154857 595.62537873 5.05106533 629.78818589 C5.0523161 634.26194815 5.05361041 638.73571041 5.05493164 643.20947266 C5.05519395 644.10015124 5.05545626 644.99082982 5.05572652 645.90849866 C5.06008267 660.34690321 5.06796992 674.7853038 5.0771528 689.22370599 C5.08649085 704.02913787 5.09205593 718.83456767 5.09408849 733.64000237 C5.0954634 742.78220928 5.09981228 751.92440498 5.10791647 761.06660844 C5.1131858 767.3282719 5.11480387 773.58992952 5.11350138 779.85159503 C5.11285829 783.46897648 5.11387221 787.08633829 5.11920547 790.70371628 C5.12493448 794.61790443 5.12299895 798.53206664 5.12025452 802.44625854 C5.12316736 803.59993545 5.1260802 804.75361236 5.12908131 805.94224918 C5.12709026 806.98428316 5.12509921 808.02631714 5.12304783 809.0999279 C5.12342755 810.00442173 5.12380727 810.90891556 5.1241985 811.84081829 C5 814 5 814 4 816 C-27.02 816 -58.04 816 -90 816 C-91.19400281 813.61199439 -91.12470054 812.15987075 -91.1241985 809.49401557 C-91.12644579 808.53773197 -91.12869308 807.58144836 -91.13100848 806.59618646 C-91.12838146 805.53615511 -91.12575445 804.47612377 -91.12304783 803.38397026 C-91.12420167 802.26058245 -91.12535552 801.13719463 -91.12654433 799.97976476 C-91.12921638 796.17032311 -91.12468399 792.36092271 -91.12025452 788.55148315 C-91.12013397 785.81088907 -91.1215224 783.07029622 -91.12284368 780.3297025 C-91.12492216 774.34790314 -91.12326559 768.3661137 -91.11920547 762.38431549 C-91.11318489 753.4895193 -91.11286832 744.59472939 -91.11374746 735.69993153 C-91.11506323 720.73943483 -91.1117129 705.77894253 -91.10573006 690.81844711 C-91.09981894 675.99942885 -91.09596531 661.18041241 -91.09487724 646.36139297 C-91.0948085 645.44099619 -91.09473976 644.52059941 -91.09466894 643.57231182 C-91.09433062 638.89833991 -91.09402923 634.22436801 -91.09374207 629.5503961 C-91.09164002 596.4195011 -91.08489812 563.28860849 -91.07543945 530.15771484 C-91.06625941 497.96565768 -91.05917365 465.77360118 -91.05493164 433.58154297 C-91.05480011 432.5897529 -91.05466859 431.59796282 -91.05453308 430.5761185 C-91.05321459 420.6164202 -91.05193877 410.65672189 -91.05069422 400.69702358 C-91.0481578 380.40683119 -91.04533655 360.11663885 -91.04234314 339.82644653 C-91.04220585 338.89347647 -91.04206856 337.9605064 -91.04192711 336.99926452 C-91.03272191 274.66617535 -91.01687618 212.33308751 -91 150 C-90.34 150 -89.68 150 -89 150 C-89 148.68 -89 147.36 -89 146 C-88.34 146 -87.68 146 -87 146 C-86.34 144.02 -85.68 142.04 -85 140 C-84.34 140 -83.68 140 -83 140 C-83 139.34 -83 138.68 -83 138 C-82.34 138 -81.68 138 -81 138 C-81 137.34 -81 136.68 -81 136 C-80.34 136 -79.68 136 -79 136 C-79 135.34 -79 134.68 -79 134 C-78.01 134 -77.02 134 -76 134 C-76 133.34 -76 132.68 -76 132 C-75.01 132 -74.02 132 -73 132 C-73 131.34 -73 130.68 -73 130 C-72.01 130 -71.02 130 -70 130 C-70 129.34 -70 128.68 -70 128 C-68.68 128 -67.36 128 -66 128 C-66 127.34 -66 126.68 -66 126 C-65.01 126 -64.02 126 -63 126 C-63 125.34 -63 124.68 -63 124 C-61.35 124 -59.7 124 -58 124 C-58 123.34 -58 122.68 -58 122 C-57.01 122 -56.02 122 -55 122 C-55.5775 120.9275 -56.155 119.855 -56.75 118.75 C-61.07256624 110.0122411 -63.78144655 101.81149557 -63 92 C-63.66 92 -64.32 92 -65 92 C-65.02690844 89.37493198 -65.04679404 86.75013827 -65.0625 84.125 C-65.07087891 83.37863281 -65.07925781 82.63226563 -65.08789062 81.86328125 C-65.11328125 76.2265625 -65.11328125 76.2265625 -64 74 C-63.77141886 71.9625237 -63.58975722 69.91959697 -63.4375 67.875 C-63.35371094 66.77929688 -63.26992187 65.68359375 -63.18359375 64.5546875 C-63.09271484 63.29011719 -63.09271484 63.29011719 -63 62 C-62.34 62 -61.68 62 -61 62 C-61 59.36 -61 56.72 -61 54 C-60.34 54 -59.68 54 -59 54 C-58.855625 53.0925 -58.71125 52.185 -58.5625 51.25 C-58.13590527 48.78523044 -57.64925779 46.41152893 -57 44 C-56.34 44 -55.68 44 -55 44 C-55 42.68 -55 41.36 -55 40 C-54.34 40 -53.68 40 -53 40 C-52.34 38.02 -51.68 36.04 -51 34 C-50.34 34 -49.68 34 -49 34 C-48.67 32.68 -48.34 31.36 -48 30 C-47.34 30 -46.68 30 -46 30 C-46 29.34 -46 28.68 -46 28 C-45.34 28 -44.68 28 -44 28 C-44 27.34 -44 26.68 -44 26 C-43.34 26 -42.68 26 -42 26 C-41.67 24.68 -41.34 23.36 -41 22 C-40.01 22 -39.02 22 -38 22 C-38 21.34 -38 20.68 -38 20 C-37.34 20 -36.68 20 -36 20 C-36 19.34 -36 18.68 -36 18 C-35.01 18 -34.02 18 -33 18 C-33 17.34 -33 16.68 -33 16 C-32.34 16 -31.68 16 -31 16 C-31 15.34 -31 14.68 -31 14 C-30.01 14 -29.02 14 -28 14 C-28 13.34 -28 12.68 -28 12 C-26.68 12 -25.36 12 -24 12 C-24 11.34 -24 10.68 -24 10 C-23.01 10 -22.02 10 -21 10 C-21 9.34 -21 8.68 -21 8 C-19.68 8 -18.36 8 -17 8 C-17 7.34 -17 6.68 -17 6 C-15.35 6 -13.7 6 -12 6 C-12 5.34 -12 4.68 -12 4 C-10.35 4 -8.7 4 -7 4 C-7 3.34 -7 2.68 -7 2 C-4.69 2 -2.38 2 0 2 C0 1.34 0 0.68 0 0 Z " fill="#A80101" transform="translate(149,0)"/>
<path d="M0 0 C14.19 0 28.38 0 43 0 C43 0.66 43 1.32 43 2 C43.66 2 44.32 2 45 2 C46.15042758 4.30085516 46.12529283 5.58620454 46.12584114 8.14485168 C46.12844889 9.01844928 46.13105664 9.89204687 46.13374341 10.79211712 C46.13151268 11.75766427 46.12928196 12.72321142 46.12698364 13.71801758 C46.12854363 14.73920339 46.13010362 15.76038919 46.13171089 16.81252003 C46.13572017 20.25653817 46.1325315 23.70051273 46.12939453 27.14453125 C46.1307486 29.60460435 46.13252857 32.06467725 46.13470459 34.52474976 C46.13880257 40.52631428 46.13818688 46.52786152 46.13529195 52.52942538 C46.13303698 57.40541102 46.1327258 62.28139314 46.13381577 67.15737915 C46.133969 67.85037103 46.13412223 68.54336292 46.13428011 69.25735456 C46.13459982 70.66499003 46.13492403 72.0726255 46.1352527 73.48026097 C46.13810679 86.69122309 46.13482158 99.90217828 46.12945233 113.11313927 C46.12498436 124.45791663 46.12576031 135.80268376 46.13037109 147.14746094 C46.1357181 160.30995064 46.13783211 173.47243426 46.13475883 186.63492489 C46.13444027 188.03749021 46.1341259 189.44005553 46.13381577 190.84262085 C46.13358435 191.8778551 46.13358435 191.8778551 46.13334826 192.93400317 C46.13248349 197.8062335 46.13394514 202.67845997 46.13629532 207.5506897 C46.1393867 214.10380239 46.13719752 220.65689868 46.13140106 227.21001053 C46.1300737 229.62155754 46.13046718 232.03310618 46.13266373 234.44465256 C46.13537614 237.7237849 46.13199293 241.00285415 46.12698364 244.28198242 C46.12921436 245.24752957 46.13144509 246.21307673 46.13374341 247.20788288 C46.12983178 248.51827927 46.12983178 248.51827927 46.12584114 249.85514832 C46.12567879 250.61274539 46.12551644 251.37034246 46.12534916 252.15089703 C46 254 46 254 45 256 C44.34 256 43.68 256 43 256 C43 256.66 43 257.32 43 258 C40.03 258 37.06 258 34 258 C34.00075944 258.76218381 34.00151888 259.52436763 34.00230134 260.30964792 C34.04706074 305.48620302 34.08137477 350.66275571 34.10213066 395.83932855 C34.10463206 401.26414225 34.10722071 406.6889559 34.10986328 412.11376953 C34.1103879 413.19374897 34.11091252 414.27372842 34.11145304 415.38643451 C34.12015485 432.87163991 34.1359236 450.35683214 34.15430559 467.84202974 C34.17301085 485.7844141 34.18411805 503.72679157 34.18817699 521.66918528 C34.19092074 532.73993471 34.19958572 543.81064695 34.21583293 554.88138492 C34.22640753 562.47374429 34.22959954 570.06608445 34.22700275 577.65845065 C34.22572221 582.03834131 34.22768074 586.41816701 34.23841095 590.79804611 C34.24817161 594.81155433 34.24861667 598.82495413 34.24179779 602.83846743 C34.2409555 604.286821 34.24346864 605.73518144 34.24976636 607.18352155 C34.28190799 615.03492965 33.96833033 622.37489613 32 630 C31.34 630 30.68 630 30 630 C30 631.32 30 632.64 30 634 C29.34 634 28.68 634 28 634 C28 634.66 28 635.32 28 636 C26.02 636 24.04 636 22 636 C22 635.34 22 634.68 22 634 C21.34 634 20.68 634 20 634 C18.29769975 629.5064787 17.6770104 625.54020798 17.4375 620.75 C17.3544786 616.21178667 17.3544786 616.21178667 16 612 C15.90515998 610.07701874 15.87627185 608.15067359 15.87695217 606.22535515 C15.87496112 604.98825102 15.87297007 603.75114689 15.87091869 602.47655475 C15.8737721 601.09113031 15.8767177 599.70570605 15.87974548 598.32028198 C15.87930978 596.85837635 15.8784349 595.3964708 15.87715632 593.93456566 C15.87491113 589.90291733 15.87893297 585.87129536 15.88393438 581.83965039 C15.88823835 577.49745002 15.88679249 573.15525122 15.8860321 568.81304932 C15.88550684 561.28509034 15.88865394 553.75714 15.89426994 546.2291832 C15.90238454 535.34491688 15.90500012 524.46065476 15.90625793 513.57638575 C15.90844852 495.91892276 15.91510877 478.26146439 15.92456055 460.60400391 C15.9337345 443.44775414 15.94081542 426.29150563 15.94506836 409.13525391 C15.94533108 408.07838292 15.94559381 407.02151193 15.94586449 405.93261455 C15.94716949 400.6307946 15.94843321 395.32897465 15.94967639 390.02715468 C15.9600492 346.0180999 15.97774184 302.00905026 16 258 C10.72 258 5.44 258 0 258 C0 257.34 0 256.68 0 256 C-0.66 256 -1.32 256 -2 256 C-2 255.34 -2 254.68 -2 254 C-2.66 254 -3.32 254 -4 254 C-4 171.5 -4 89 -4 4 C-3.34 4 -2.68 4 -2 4 C-2 3.34 -2 2.68 -2 2 C-1.34 2 -0.68 2 0 2 C0 1.34 0 0.68 0 0 Z " fill="#A90707" transform="translate(4,180)"/>
<path d="M0 0 C14.19 0 28.38 0 43 0 C43 0.66 43 1.32 43 2 C43.66 2 44.32 2 45 2 C45 2.66 45 3.32 45 4 C45.66 4 46.32 4 47 4 C47.02279394 35.55968947 47.04050003 67.1193766 47.05106533 98.67907237 C47.05231609 102.40177092 47.05361041 106.12446945 47.05493164 109.84716797 C47.05519395 110.58831581 47.05545626 111.32946365 47.05572652 112.09307052 C47.06008233 124.10652808 47.0679694 136.11998087 47.0771528 148.13343559 C47.08649179 160.45284014 47.09205613 172.77224219 47.09408849 185.09165013 C47.09546321 192.69838476 47.09981103 200.30510592 47.10791647 207.9118364 C47.11380841 213.73663445 47.11445833 219.56142553 47.11310768 225.38622665 C47.113384 227.78164757 47.11538905 230.17706898 47.11920547 232.57248688 C47.12414289 235.82982774 47.12299808 239.08710983 47.12025452 242.3444519 C47.12316736 243.3035814 47.1260802 244.26271089 47.12908131 245.25090492 C47.12709026 246.11876912 47.12509921 246.98663332 47.12304783 247.88079643 C47.12361741 249.00970497 47.12361741 249.00970497 47.1241985 250.16141975 C47 252 47 252 46 254 C45.34 254 44.68 254 44 254 C44 254.66 44 255.32 44 256 C29.48 256 14.96 256 0 256 C0 255.34 0 254.68 0 254 C-0.66 254 -1.32 254 -2 254 C-3.14774653 251.70450694 -3.1243353 250.43256134 -3.12304783 247.88079643 C-3.12503888 247.01293223 -3.12702993 246.14506803 -3.12908131 245.25090492 C-3.12616847 244.29177542 -3.12325563 243.33264593 -3.12025452 242.3444519 C-3.12110894 241.33002207 -3.12196337 240.31559223 -3.12284368 239.2704221 C-3.12449923 235.84937187 -3.11897587 232.42836998 -3.11352539 229.00732422 C-3.11324351 226.56371054 -3.11340127 224.12009678 -3.1139679 221.67648315 C-3.11419609 216.40429938 -3.11134789 211.13213083 -3.10573006 205.85995102 C-3.09761283 198.23720802 -3.09499961 190.614471 -3.09374207 182.99172415 C-3.0915519 170.62517599 -3.08489276 158.25863442 -3.07543945 145.89208984 C-3.06626443 133.87711622 -3.05918404 121.86214439 -3.05493164 109.84716797 C-3.05453756 108.73679378 -3.05453756 108.73679378 -3.05413551 107.6039878 C-3.0528305 103.89047941 -3.05156678 100.176971 -3.05032361 96.46346259 C-3.03995209 65.6423036 -3.02226054 34.8211528 -3 4 C-2.34 4 -1.68 4 -1 4 C-0.67 2.68 -0.34 1.36 0 0 Z " fill="#A90B0B" transform="translate(293,180)"/>
<path d="M0 0 C3.63 0 7.26 0 11 0 C11 0.66 11 1.32 11 2 C8.03 2 5.06 2 2 2 C2 121.46 2 240.92 2 364 C1.34 364.33 0.68 364.66 0 365 C0 244.55 0 124.1 0 0 Z " fill="#BC7F7F" transform="translate(36,436)"/>
<path d="M0 0 C5.94 0 11.88 0 18 0 C18 117.81 18 235.62 18 357 C17.34 356.67 16.68 356.34 16 356 C16 239.18 16 122.36 16 2 C10.72 2 5.44 2 0 2 C0 1.34 0 0.68 0 0 Z " fill="#BC7F7F" transform="translate(4,436)"/>
</svg>
