<?xml version="1.0" encoding="UTF-8"?>
<svg version="1.1" xmlns="http://www.w3.org/2000/svg" width="340" height="816">
<path d="M0 0 C11.22 0 22.44 0 34 0 C34 0.66 34 1.32 34 2 C35.98 2 37.96 2 40 2 C40 2.66 40 3.32 40 4 C41.98 4 43.96 4 46 4 C46 4.66 46 5.32 46 6 C47.32 6 48.64 6 50 6 C50 6.66 50 7.32 50 8 C51.32 8 52.64 8 54 8 C54 8.66 54 9.32 54 10 C55.32 10 56.64 10 58 10 C58 10.66 58 11.32 58 12 C58.66 12 59.32 12 60 12 C60 12.66 60 13.32 60 14 C60.66 14 61.32 14 62 14 C62 14.66 62 15.32 62 16 C62.66 16 63.32 16 64 16 C64 16.66 64 17.32 64 18 C64.66 18 65.32 18 66 18 C66 18.66 66 19.32 66 20 C66.66 20 67.32 20 68 20 C68 20.66 68 21.32 68 22 C68.66 22 69.32 22 70 22 C70 22.66 70 23.32 70 24 C70.66 24 71.32 24 72 24 C72 24.66 72 25.32 72 26 C72.66 26 73.32 26 74 26 C74 26.66 74 27.32 74 28 C74.66 28 75.32 28 76 28 C76 28.66 76 29.32 76 30 C76.66 30 77.32 30 78 30 C78 31.32 78 32.64 78 34 C78.66 34 79.32 34 80 34 C80 35.32 80 36.64 80 38 C80.66 38 81.32 38 82 38 C82 38.66 82 39.32 82 40 C82.66 40 83.32 40 84 40 C84 41.32 84 42.64 84 44 C84.66 44 85.32 44 86 44 C86 45.32 86 46.64 86 48 C86.66 48 87.32 48 88 48 C88 49.32 88 50.64 88 52 C88.66 52 89.32 52 90 52 C90 53.32 90 54.64 90 56 C90.66 56 91.32 56 92 56 C92 57.98 92 59.96 92 62 C92.66 62 93.32 62 94 62 C94 67.94 94 73.88 94 80 C94.66 80 95.32 80 96 80 C96 80.66 96 81.32 96 82 C95.34 82 94.68 82 94 82 C94 87.28 94 92.56 94 98 C93.34 98 92.68 98 92 98 C92 100.64 92 103.28 92 106 C91.34 106 90.68 106 90 106 C90 107.98 90 109.96 90 112 C89.34 112 88.68 112 88 112 C88 113.98 88 115.96 88 118 C88.66 118 89.32 118 90 118 C90 118.66 90 119.32 90 120 C91.98 120 93.96 120 96 120 C96 120.66 96 121.32 96 122 C97.98 122 99.96 122 102 122 C102 122.66 102 123.32 102 124 C103.32 124 104.64 124 106 124 C106 124.66 106 125.32 106 126 C107.32 126 108.64 126 110 126 C110 126.66 110 127.32 110 128 C111.32 128 112.64 128 114 128 C114 128.66 114 129.32 114 130 C114.66 130 115.32 130 116 130 C116 130.66 116 131.32 116 132 C117.32 132 118.64 132 120 132 C120 132.66 120 133.32 120 134 C120.66 134 121.32 134 122 134 C122 134.66 122 135.32 122 136 C122.66 136 123.32 136 124 136 C124 136.66 124 137.32 124 138 C124.66 138 125.32 138 126 138 C126 139.32 126 140.64 126 142 C126.66 142 127.32 142 128 142 C128 143.32 128 144.64 128 146 C128.66 146 129.32 146 130 146 C130 147.98 130 149.96 130 152 C130.66 152 131.32 152 132 152 C132 370.46 132 588.92 132 814 C131.34 814 130.68 814 130 814 C130 814.66 130 815.32 130 816 C99.64 816 69.28 816 38 816 C38 815.34 38 814.68 38 814 C37.34 814 36.68 814 36 814 C36 715.66 36 617.32 36 516 C26.1 516 16.2 516 6 516 C6 615 6 714 6 816 C-25.68 816 -57.36 816 -90 816 C-90 596.22 -90 376.44 -90 150 C-89.34 150 -88.68 150 -88 150 C-88 148.68 -88 147.36 -88 146 C-87.34 146 -86.68 146 -86 146 C-86 144.68 -86 143.36 -86 142 C-85.34 142 -84.68 142 -84 142 C-84 141.34 -84 140.68 -84 140 C-83.34 140 -82.68 140 -82 140 C-82 139.34 -82 138.68 -82 138 C-81.34 138 -80.68 138 -80 138 C-80 137.34 -80 136.68 -80 136 C-79.34 136 -78.68 136 -78 136 C-78 135.34 -78 134.68 -78 134 C-77.34 134 -76.68 134 -76 134 C-76 133.34 -76 132.68 -76 132 C-74.68 132 -73.36 132 -72 132 C-72 131.34 -72 130.68 -72 130 C-71.34 130 -70.68 130 -70 130 C-70 129.34 -70 128.68 -70 128 C-68.68 128 -67.36 128 -66 128 C-66 127.34 -66 126.68 -66 126 C-64.68 126 -63.36 126 -62 126 C-62 125.34 -62 124.68 -62 124 C-60.68 124 -59.36 124 -58 124 C-58 123.34 -58 122.68 -58 122 C-56.68 122 -55.36 122 -54 122 C-54 121.34 -54 120.68 -54 120 C-54.66 120 -55.32 120 -56 120 C-56 118.68 -56 117.36 -56 116 C-56.66 116 -57.32 116 -58 116 C-58 114.02 -58 112.04 -58 110 C-58.66 110 -59.32 110 -60 110 C-60 108.02 -60 106.04 -60 104 C-60.66 104 -61.32 104 -62 104 C-62 100.04 -62 96.08 -62 92 C-62.66 92 -63.32 92 -64 92 C-64 86.06 -64 80.12 -64 74 C-63.34 74 -62.68 74 -62 74 C-62 70.04 -62 66.08 -62 62 C-61.34 62 -60.68 62 -60 62 C-60 59.36 -60 56.72 -60 54 C-59.34 54 -58.68 54 -58 54 C-58 52.02 -58 50.04 -58 48 C-57.34 48 -56.68 48 -56 48 C-56 46.68 -56 45.36 -56 44 C-55.34 44 -54.68 44 -54 44 C-54 42.68 -54 41.36 -54 40 C-53.34 40 -52.68 40 -52 40 C-52 38.68 -52 37.36 -52 36 C-51.34 36 -50.68 36 -50 36 C-50 35.34 -50 34.68 -50 34 C-49.34 34 -48.68 34 -48 34 C-48 32.68 -48 31.36 -48 30 C-47.34 30 -46.68 30 -46 30 C-46 29.34 -46 28.68 -46 28 C-45.34 28 -44.68 28 -44 28 C-44 27.34 -44 26.68 -44 26 C-43.34 26 -42.68 26 -42 26 C-42 25.34 -42 24.68 -42 24 C-41.34 24 -40.68 24 -40 24 C-40 23.34 -40 22.68 -40 22 C-39.34 22 -38.68 22 -38 22 C-38 21.34 -38 20.68 -38 20 C-37.34 20 -36.68 20 -36 20 C-36 19.34 -36 18.68 -36 18 C-34.68 18 -33.36 18 -32 18 C-32 17.34 -32 16.68 -32 16 C-31.34 16 -30.68 16 -30 16 C-30 15.34 -30 14.68 -30 14 C-29.34 14 -28.68 14 -28 14 C-28 13.34 -28 12.68 -28 12 C-26.68 12 -25.36 12 -24 12 C-24 11.34 -24 10.68 -24 10 C-22.68 10 -21.36 10 -20 10 C-20 9.34 -20 8.68 -20 8 C-18.68 8 -17.36 8 -16 8 C-16 7.34 -16 6.68 -16 6 C-14.68 6 -13.36 6 -12 6 C-12 5.34 -12 4.68 -12 4 C-10.02 4 -8.04 4 -6 4 C-6 3.34 -6 2.68 -6 2 C-4.02 2 -2.04 2 0 2 C0 1.34 0 0.68 0 0 Z " fill="#0171FD" transform="translate(148,0)"/>
<path d="M0 0 C14.52 0 29.04 0 44 0 C44 0.66 44 1.32 44 2 C44.66 2 45.32 2 46 2 C46 85.82 46 169.64 46 256 C45.34 256 44.68 256 44 256 C44 256.66 44 257.32 44 258 C40.7 258 37.4 258 34 258 C34 378.12 34 498.24 34 622 C33.34 622 32.68 622 32 622 C32 624.64 32 627.28 32 630 C31.34 630 30.68 630 30 630 C30 631.32 30 632.64 30 634 C29.34 634 28.68 634 28 634 C28 634.66 28 635.32 28 636 C26.02 636 24.04 636 22 636 C22 635.34 22 634.68 22 634 C21.34 634 20.68 634 20 634 C20 632.68 20 631.36 20 630 C19.34 630 18.68 630 18 630 C18 624.72 18 619.44 18 614 C17.34 614 16.68 614 16 614 C16 496.52 16 379.04 16 258 C10.72 258 5.44 258 0 258 C0 257.34 0 256.68 0 256 C-0.66 256 -1.32 256 -2 256 C-2 255.34 -2 254.68 -2 254 C-2.66 254 -3.32 254 -4 254 C-4 171.5 -4 89 -4 4 C-3.34 4 -2.68 4 -2 4 C-2 3.34 -2 2.68 -2 2 C-1.34 2 -0.68 2 0 2 C0 1.34 0 0.68 0 0 Z " fill="#117AF9" transform="translate(4,180)"/>
<path d="M0 0 C14.52 0 29.04 0 44 0 C44 0.66 44 1.32 44 2 C44.66 2 45.32 2 46 2 C46 2.66 46 3.32 46 4 C46.66 4 47.32 4 48 4 C48 86.5 48 169 48 254 C47.34 254 46.68 254 46 254 C46 254.66 46 255.32 46 256 C30.82 256 15.64 256 0 256 C0 255.34 0 254.68 0 254 C-0.66 254 -1.32 254 -2 254 C-2 171.5 -2 89 -2 4 C-1.34 4 -0.68 4 0 4 C0 2.68 0 1.36 0 0 Z " fill="#0B77FB" transform="translate(292,180)"/>
</svg>
